<svg width="80" height="80" viewBox="0 0 80 80" fill="none" xmlns="http://www.w3.org/2000/svg">
<rect width="80" height="80" rx="40" fill="#E84142"/>
<path d="M14.4377 53.7226C14.3248 53.7973 14.2925 53.7226 14.349 53.6146L14.954 52.4026C15.0214 52.2584 15.1279 52.1373 15.2605 52.0539L25.4411 45.9272C25.5541 45.8607 25.5864 45.9272 25.5299 46.0683L25.0378 47.1807C24.9721 47.3231 24.8755 47.4481 24.7555 47.546L14.4377 53.7226Z" fill="white" stroke="#E84142" stroke-width="0.416906" stroke-linejoin="round"/>
<path d="M10.121 59.2354C10.0081 59.3018 10.0081 59.2603 10.0081 59.169L10.605 57.9569C10.6768 57.8131 10.7856 57.6925 10.9196 57.6082L23.9156 49.7796C24.0285 49.7131 24.085 49.7796 24.0608 49.8875L23.8269 50.7841C23.7865 50.9275 23.694 51.0493 23.5688 51.1245L10.121 59.2354Z" fill="white" stroke="#E84142" stroke-width="0.416906" stroke-linejoin="round"/>
<path d="M17.0199 57.9898C16.9069 58.0563 16.8828 57.9898 16.9392 57.8487L17.3345 56.8192C17.3963 56.6742 17.497 56.5504 17.625 56.4623L23.2718 53.0253C23.3848 52.9589 23.4412 53.0253 23.4412 53.1498L23.3848 53.98C23.3784 54.0488 23.3569 54.1151 23.322 54.1741C23.287 54.233 23.2396 54.2831 23.1831 54.3204L17.0199 57.9898Z" fill="white" stroke="#E84142" stroke-width="0.416906" stroke-linejoin="round"/>
<path d="M46.5256 33.8397C44.7427 35.417 43.5165 36.5295 41.758 38.0986C41.3304 38.4804 41.3062 38.5302 40.9512 38.2729C40.5759 37.9709 40.1025 37.8283 39.6283 37.8744C37.8535 37.9574 36.1191 39.2857 34.4895 41.4359C32.6861 43.6112 31.6487 46.349 31.5451 49.2064C31.5451 51.697 33.102 52.8593 35.3365 51.8547C37.4348 50.7823 39.1346 49.0329 40.1768 46.8736C40.4349 46.3672 40.6608 45.8525 40.9835 45.2132L35.5221 48.534C34.9252 48.8909 34.788 48.534 34.9897 47.9113C35.3608 46.7075 36.0546 44.657 36.4579 43.586C36.5878 43.2037 36.8375 42.8766 37.1678 42.6562L47.4775 36.4464C47.4129 37.3348 47.4048 38.1899 47.2838 39.1197C46.8821 41.771 46.0619 44.3368 44.8557 46.7159C43.0005 50.738 40.234 54.2427 36.7886 56.9355C34.0136 59.0109 31.4483 59.9739 29.1895 59.426C27.1082 58.9279 25.9197 57.3174 25.6239 54.5943C25.2689 51.3732 26.1967 47.7204 28.0843 43.8601C29.9717 39.8592 32.7029 36.3423 36.0787 33.5657C38.757 31.4156 41.3142 30.245 43.5972 30.6019C44.2976 30.697 44.9624 30.9762 45.5275 31.4124C46.0927 31.8486 46.5392 32.4272 46.824 33.0925C46.9853 33.3084 46.8725 33.5325 46.5256 33.8397Z" fill="white" stroke="#E84142" stroke-width="0.416906" stroke-linejoin="round"/>
<path d="M55.6653 45.6867C53.108 47.1727 50.7848 47.7621 48.8326 47.0648C47.2191 46.467 46.1623 45.0391 45.8477 42.8142C45.3718 39.5433 46.2833 35.849 48.2678 31.8641C50.1238 27.9222 52.8472 24.4799 56.2219 21.8105C59.118 19.4694 61.8204 18.1577 64.2486 18.5645C66.4751 18.9464 67.7981 20.4324 68.0886 23.2634C68.4919 27.2566 67.3464 31.3992 64.6843 35.9403C62.904 39.0361 60.6043 41.7823 57.8918 44.0512C57.1577 44.6656 56.3994 45.1553 55.6653 45.6867ZM62.5384 28.892C62.5346 28.5587 62.5104 28.226 62.4658 27.8958C62.006 25.0565 59.4649 24.8241 56.7705 27.132C54.1884 29.2778 52.4164 32.2849 51.7608 35.6331C51.2284 38.406 52.2691 40.2573 54.2858 40.0497C55.8266 39.8671 57.3755 38.8459 58.876 37.0859C60.9501 34.851 62.2392 31.967 62.5384 28.892Z" fill="white" stroke="#E84142" stroke-width="0.416906" stroke-linejoin="round"/>
<path d="M23.759 49.7253L25.8128 50.728L12.5897 58.672L11.7876 60.2762L10 59.2582L10.7705 57.6539L23.759 49.7253Z" fill="white" stroke="#E84142" stroke-width="0.416906" stroke-linejoin="round"/>
<path d="M23.2197 53.1189L25.2163 54.0236L19.2144 57.5636L18.6096 58.9984L16.8857 58.0378L17.4337 56.5113L23.2197 53.1189Z" fill="white" stroke="#E84142" stroke-width="0.416906" stroke-linejoin="round"/>
<path d="M16.1922 54.7517C16.0712 54.8181 16.047 54.7517 16.1034 54.6438L16.7004 53.4317C16.7722 53.288 16.881 53.1673 17.015 53.083L27.1956 46.9563C27.3086 46.8898 27.3328 46.9563 27.2763 47.0974L26.7923 48.2098C26.7265 48.3522 26.63 48.4772 26.5099 48.5751L16.1922 54.7517Z" fill="white" stroke="#E84142" stroke-width="0.416906" stroke-linejoin="round"/>
<path d="M11.8779 60.2641C11.765 60.3305 11.7327 60.2641 11.7892 60.1561L12.4265 58.944C12.496 58.7988 12.6054 58.6776 12.7411 58.5954L25.737 50.7668C25.85 50.7003 25.9065 50.7668 25.8742 50.8663L25.6483 51.7713C25.6079 51.9146 25.5155 52.0365 25.3902 52.1117L11.8779 60.2641Z" fill="white" stroke="#E84142" stroke-width="0.416906" stroke-linejoin="round"/>
<path d="M18.7732 59.0195C18.6603 59.0859 18.628 59.0195 18.6844 58.8784L19.0878 57.8489C19.1493 57.7038 19.2466 57.5779 19.3702 57.4836L25.0654 54.055C25.1784 53.9885 25.2349 54.055 25.2349 54.1795L25.1784 54.9682C25.1689 55.036 25.1462 55.1011 25.1115 55.1596C25.0768 55.2181 25.0309 55.2688 24.9767 55.3086L18.7732 59.0195Z" fill="white" stroke="#E84142" stroke-width="0.416906" stroke-linejoin="round"/>
<path d="M48.2889 34.8616C46.498 36.4473 45.2799 37.5598 43.5213 39.1288C43.0938 39.5107 43.0615 39.5605 42.7146 39.3031C42.3405 38.9982 41.867 38.8526 41.3916 38.8963C39.6169 38.9877 37.8825 40.316 36.2529 42.4661C34.4551 44.6442 33.421 47.381 33.3165 50.2367C33.3165 52.7272 34.8815 53.8895 37.1161 52.885C39.2144 51.8125 40.9142 50.0632 41.9563 47.9039C42.2145 47.3975 42.4404 46.8827 42.763 46.2435L37.3016 49.5642C36.7047 49.9212 36.5675 49.5642 36.7692 48.9416C37.1403 47.7379 37.834 45.679 38.2374 44.6163C38.364 44.232 38.6145 43.904 38.9473 43.6865L49.257 37.4767C49.1924 38.3651 49.1844 39.2201 49.0634 40.1416C48.676 42.7898 47.8722 45.3555 46.6836 47.7378C44.8284 51.7576 42.0618 55.2597 38.6166 57.9491C35.8415 60.0329 33.2762 60.9959 31.0174 60.4397C28.9281 59.9416 27.7503 58.3227 27.4518 55.608C27.0968 52.3868 28.0165 48.734 29.8719 44.8737C31.7593 40.8729 34.4904 37.3559 37.8663 34.5794C40.5446 32.4292 43.1018 31.2587 45.3848 31.6156C46.0849 31.7115 46.7494 31.9909 47.3144 32.427C47.8795 32.8631 48.3261 33.4413 48.6116 34.1062C48.7326 34.3386 48.6278 34.5627 48.2889 34.8616Z" fill="white" stroke="#E84142" stroke-width="0.416906" stroke-linejoin="round"/>
<path d="M45.7113 37.2224L48.0238 38.2057C45.2065 39.9061 39.4513 43.3812 38.9699 43.6775C38.4885 43.9737 38.2524 44.4412 38.1945 44.638C37.7818 45.8801 36.9239 48.4824 36.7942 48.9546C36.6646 49.4268 36.6708 49.6219 36.69 49.6605C36.2041 49.4021 35.1881 48.8481 35.0122 48.7C34.8363 48.5518 34.854 48.2988 34.8848 48.1908C35.3325 46.8522 36.2721 44.0547 36.448 43.5733C36.6239 43.0919 36.8997 42.8052 37.0156 42.722L42.7077 39.3117L43.0923 39.4798L45.7113 37.2224Z" fill="white" stroke="#E84142" stroke-width="0.416906" stroke-linejoin="round"/>
<path d="M57.4307 46.7152C54.8734 48.2013 52.5501 48.7908 50.5979 48.0934C48.9845 47.4874 47.9277 46.0677 47.6131 43.8428C47.1371 40.5719 48.0487 36.8692 50.0332 32.8843C51.8825 28.9312 54.6068 25.4793 57.9873 22.8059C60.8753 20.498 63.5858 19.1863 66.0544 19.5931C68.2566 19.9667 69.6038 21.461 69.9184 24.2919C70.3299 28.2851 69.1844 32.4278 66.5222 36.9689C64.7252 40.0598 62.4089 42.7976 59.6814 45.0549C58.9231 45.6941 58.1647 46.184 57.4307 46.7152ZM64.3038 29.9123C64.2957 29.5819 64.2715 29.2522 64.2312 28.9244C63.7714 26.0852 61.2303 25.8444 58.5359 28.1606C55.9538 30.3064 54.1817 33.3135 53.5262 36.6617C52.9938 39.4345 54.0344 41.2858 56.0512 41.0783C57.6081 40.9039 59.1409 39.8662 60.6414 38.1146C62.714 35.8753 64.0027 32.9892 64.3038 29.9123Z" fill="white" stroke="#E84142" stroke-width="0.416906" stroke-linejoin="round"/>
<path d="M27.2867 46.9275L25.5044 45.8965L15.0739 52.1095L14.3396 53.7405L16.0053 54.8058L16.804 53.208L27.2867 46.9275Z" fill="white" stroke="#E84142" stroke-width="0.416906" stroke-linejoin="round"/>
</svg>
