<svg width="80" height="80" viewBox="0 0 80 80" fill="none" xmlns="http://www.w3.org/2000/svg">
<rect width="80" height="80" rx="40" fill="#121826"/>
<ellipse cx="39.9568" cy="56.4312" rx="3.67681" ry="3.67681" stroke="white" stroke-width="2.22837"/>
<rect x="33.4747" y="49.9073" width="5.79971" height="12.2202" rx="2.89986" transform="rotate(43.7662 33.4747 49.9073)" stroke="white" stroke-width="1.78269"/>
<rect width="5.79971" height="12.2202" rx="2.89986" transform="matrix(-0.722168 0.691718 0.691717 0.722168 46.485 49.9073)" stroke="white" stroke-width="1.78269"/>
<path fill-rule="evenodd" clip-rule="evenodd" d="M37.9386 16.0952L15.313 54.4067C14.4357 55.8921 15.5066 57.7682 17.2318 57.7682H24.5693C25.1485 57.7682 25.7049 57.5427 26.1207 57.1394L33.0533 50.4152C32.1374 47.1774 33.3813 44.301 34.8552 42.4516C35.0749 42.176 35.5164 42.283 35.6786 42.596C36.0022 43.2208 36.4956 43.7455 37.0264 44.1304C37.8832 44.7517 38.738 43.9277 38.6321 42.8747C38.295 39.5215 38.2175 36.266 40.5512 33.2038C40.6797 33.0352 40.9456 33.1352 40.9479 33.3472C40.9859 36.9403 42.7543 39.3491 44.4171 41.6142C45.8793 43.606 47.2599 45.4866 47.3104 47.9634C47.3267 48.7611 47.1648 49.6119 46.9843 50.3026L53.5617 57.0905C53.9814 57.5237 54.5588 57.7682 55.162 57.7682H62.7682C64.4988 57.7682 65.5689 55.8814 64.6807 54.3961L41.7699 16.0847C40.9022 14.6338 38.7983 14.6396 37.9386 16.0952Z" fill="white"/>
</svg>
