<?xml version="1.0" encoding="utf-8"?>
<!-- Generator: Adobe Illustrator 26.2.1, SVG Export Plug-In . SVG Version: 6.00 Build 0)  -->
<svg version="1.1" id="Layer_1" xmlns="http://www.w3.org/2000/svg" xmlns:xlink="http://www.w3.org/1999/xlink" x="0px" y="0px"
	 viewBox="0 0 80 80" style="enable-background:new 0 0 80 80;" xml:space="preserve">
<style type="text/css">
	.st0{fill:#8258C4;}
	.st1{fill:#FFFFFF;}
</style>
<circle class="st0" cx="40" cy="40" r="39.7"/>
<g>
	<path class="st1" d="M23.5,14.9c2.9,0.7,6,1,9,1.2c4.4,0.3,8.9,0.4,13.3,0.1c3.6-0.2,7.3-0.5,10.8-1.3c1.5,1.9,2.8,4,3.8,6.3
		c-1.3,0.5-2.5,0.8-3.8,1.1c-3.6,0.7-7.4,1-11.1,1.2c-2.5,0.1-5,0.2-7.6,0.1c-3.4-0.1-6.9-0.3-10.3-0.7c-2.7-0.3-5.3-0.8-7.8-1.7
		C20.7,19,22,16.9,23.5,14.9L23.5,14.9z"/>
	<path class="st1" d="M18.4,24.9c0.8,0.1,1.6,0.5,2.4,0.6c3.7,0.9,7.6,1.2,11.4,1.5c6.5,0.4,13,0.3,19.4-0.3
		c3.4-0.4,6.9-0.8,10.1-1.9c0.7,2.3,1.3,4.7,1.6,7.1c-8.7,2.3-17.9,2.8-26.9,2.6c-6.7-0.2-13.2-0.8-19.7-2.6c0.2-1.6,0.6-3.3,1-4.9
		C17.9,26.4,18.1,25.6,18.4,24.9L18.4,24.9z"/>
	<path class="st1" d="M44.7,45.6c6.3,0.2,12.5,0.9,18.6,2.5c-0.3,2.4-0.9,4.7-1.6,7c-1.7-0.6-3.5-1-5.3-1.3c-4.4-0.7-8.8-1-13.3-1.1
		c-5-0.1-10,0-15,0.5c-3.3,0.4-6.6,0.8-9.8,1.9c-0.7-2.3-1.3-4.7-1.6-7c4.9-1.3,9.8-2,14.8-2.3C35.9,45.5,40.3,45.4,44.7,45.6
		L44.7,45.6z"/>
	<path class="st1" d="M49.2,56.8c3.7,0.3,7.6,0.8,11.1,2.1c-1,2.3-2.2,4.4-3.8,6.3c-4.5-1.1-9.3-1.4-14-1.5
		c-6.3-0.1-12.9,0-19.1,1.5c-1.5-1.9-2.8-4-3.8-6.3c3.8-1.4,8-1.8,12-2.1C37.6,56.3,43.4,56.3,49.2,56.8L49.2,56.8z"/>
</g>
</svg>
