<svg width="80" height="80" viewBox="0 0 80 80" fill="none" xmlns="http://www.w3.org/2000/svg">
<rect width="80" height="80" rx="40" fill="black"/>
<path d="M11.813 52.7089C6.78592 42.1908 8.35125 28.0335 17.685 18.3974C30.0006 5.68287 50.6238 5.89015 62.6405 18.8982C63.0833 19.3775 63.4926 19.8877 64 20.4798C62.9522 21.3199 61.9715 22.1062 60.9116 22.956C55.8633 17.0215 49.5426 13.627 41.8314 13.0639C35.7171 12.6175 30.0707 14.1609 24.9557 17.5477C15.2203 23.9939 9.47657 37.3978 15.3479 51.2349C14.2016 51.7475 13.0522 52.2614 11.813 52.7089Z" fill="white"/>
<path d="M51.9581 21.4408C53.7669 22.9059 55.4792 24.3173 57.3387 25.8499C56.1526 26.8255 55.1845 27.622 54.089 28.5231C50.5008 24.3708 45.9996 22.0261 40.4987 21.8233C36.6905 21.683 33.1826 22.7245 30.0134 24.827C23.7792 28.963 20.639 36.5828 22.2408 43.589C24.1458 51.9222 30.0312 56.8684 39.6537 58.1295C39.5916 59.3579 39.5289 60.5993 39.4664 61.838C32.2126 62.2504 23.7285 57.3573 19.9831 49.3806C15.8015 40.4745 17.9441 29.9086 25.2602 23.4215C32.7641 16.7678 43.2581 15.9653 51.9581 21.4408Z" fill="white"/>
<path d="M40.5983 48.6979C43.1933 48.5054 45.1344 47.292 46.8622 45.5376C47.7082 46.6198 48.5108 47.6465 49.3078 48.666C47.189 51.9337 41.2843 53.7211 36.6944 52.5038C31.2517 51.0604 27.4123 46.3485 27.0031 40.6103C26.6236 35.2873 29.9073 30.0489 34.9463 27.939C40.2427 25.7212 46.0373 27.1604 50.1087 31.7325C49.0494 32.5939 47.9917 33.4538 46.8885 34.3508C44.9152 32.1998 42.5556 30.9644 39.6205 31.1132C34.83 31.3559 31.1567 35.216 31.1735 39.9483C31.19 44.6142 34.8319 48.4235 39.5471 48.7021C39.8502 48.72 40.1551 48.7067 40.5983 48.6979Z" fill="white"/>
</svg>
