<svg xmlns="http://www.w3.org/2000/svg" viewBox="0 0 80 80"><defs><style>.cls-1{fill:#fff;}.cls-2,.cls-3{fill:#101010;}.cls-2{fill-rule:evenodd;}</style></defs><g id="图层_1" data-name="图层 1"><ellipse class="cls-1" cx="39.5" cy="40.01" rx="27.24" ry="15.25"/><path class="cls-2" d="M53.55,27.67a9.16,9.16,0,0,0-9.15,9v1.39a9.15,9.15,0,0,0,18.3.15V36.82A9.15,9.15,0,0,0,53.55,27.67Zm-26.92,0a9.15,9.15,0,0,0-9.15,9v1.39a9.15,9.15,0,0,0,18.29.15V36.82A9.15,9.15,0,0,0,26.63,27.67ZM40.07,8.77C62.54,8.77,76.57,24.64,77,48q.16,19.45-6.1,21.59a9.44,9.44,0,0,1-3.28.35l-.27,0c-.46,0-.95-.08-1.46-.15l-.3,0-.32-.05L64,69.36l-.34-.08-.34-.08-.35-.09-.36-.1-.36-.1-.37-.11-.18,0-.38-.12-.38-.12-.38-.12-.2-.07-.39-.13-.4-.14-.2-.07-.41-.15-.2-.08-.42-.15-.21-.08-.42-.16-.22-.09L57,67.1,56.82,67l-.44-.18-.45-.19c-3,3.7-8.4,5.56-15.9,5.56s-12.76-1.86-15.79-5.56l-.44.19-.22.09-.44.17-.43.17-.43.17-.42.16-.41.15L21,67.9l-.21.08-.4.14-.2.07-.39.13-.39.13-.19.06-.38.12-.37.12-.37.11-.19,0-.36.1-.35.1-.35.09-.35.08-.34.08-1.3.27-.31.05-.31,0c-.51.07-1,.12-1.46.15l-.27,0a9.44,9.44,0,0,1-3.28-.35Q3,67.42,3.18,48C3.6,24.64,17.6,8.77,40.07,8.77Z"/></g><g id="图层_2" data-name="图层 2"><path class="cls-2" d="M55.85,29.76H56a3.64,3.64,0,0,1,3.64,3.64v.82A3.64,3.64,0,0,1,56,37.86h-.19a3.64,3.64,0,0,1-3.64-3.64V33.4A3.64,3.64,0,0,1,55.85,29.76Z"/></g><g id="图层_4" data-name="图层 4"><rect class="cls-3" x="25.29" y="29.76" width="7.46" height="8.1" rx="3.64"/></g></svg>