<svg width="400" height="400" viewBox="0 0 400 400" fill="none" xmlns="http://www.w3.org/2000/svg">
<g clip-path="url(#clip0_814_97)">
<rect width="400" height="400" fill="#07152E"/>
<path d="M1515 -121H-10V410H1515V-121Z" fill="url(#paint0_linear_814_97)"/>
<path fill-rule="evenodd" clip-rule="evenodd" d="M305.251 185.807L314.507 200.887L324.196 185.807H330.386L317.696 204.811L331 224.43H324.502L314.507 208.735L304.453 224.43H298.261L311.135 204.811L298.813 185.807H305.251Z" fill="white"/>
<path fill-rule="evenodd" clip-rule="evenodd" d="M262.95 219.771H267.18C269.142 219.771 271.063 219.557 272.942 219.127C274.821 218.699 276.49 217.901 277.94 216.737C279.391 215.571 280.564 213.987 281.464 211.985C282.363 209.984 282.812 207.408 282.812 204.258C282.812 202.052 282.485 200.092 281.833 198.374C281.178 196.658 280.238 195.216 279.012 194.052C277.786 192.888 276.304 192 274.568 191.386C272.829 190.772 270.899 190.466 268.774 190.466H262.95V219.771ZM269.878 185.806C272.614 185.806 275.15 186.197 277.48 186.972C279.808 187.749 281.821 188.904 283.518 190.436C285.213 191.968 286.541 193.889 287.502 196.198C288.461 198.507 288.942 201.194 288.942 204.258C288.942 207.979 288.371 211.127 287.226 213.701C286.081 216.277 284.539 218.361 282.598 219.955C280.655 221.549 278.409 222.694 275.854 223.387C273.299 224.085 270.592 224.429 267.731 224.429H257.309V185.806H269.878Z" fill="white"/>
<path fill-rule="evenodd" clip-rule="evenodd" d="M204.342 185.807H214.948L220.464 203.403C220.71 204.178 220.965 205.017 221.23 205.915C221.498 206.814 221.752 207.715 221.996 208.614C222.242 209.512 222.467 210.389 222.67 211.25C222.876 212.108 223.04 212.906 223.162 213.64H223.408C223.53 212.987 223.693 212.221 223.898 211.342C224.102 210.462 224.326 209.553 224.572 208.614C224.816 207.674 225.062 206.754 225.309 205.855C225.555 204.955 225.777 204.137 225.983 203.403L231.317 185.807H241.921L244.803 224.43H236.895C236.649 220.181 236.403 215.929 236.159 211.68C235.915 207.428 235.75 203.136 235.669 198.805L235.607 193.777H235.423C234.892 196.026 234.31 198.375 233.677 200.827C233.041 203.279 232.44 205.425 231.867 207.263L226.41 224.43H219.912L214.334 207.203C213.639 204.995 212.986 202.665 212.372 200.213C211.76 197.761 211.268 195.615 210.9 193.777H210.716C210.716 195.249 210.697 196.792 210.656 198.405C210.615 200.021 210.564 201.625 210.502 203.217C210.442 204.811 210.38 206.375 210.318 207.91C210.256 209.442 210.185 210.841 210.104 212.108L209.368 224.43H201.582L204.342 185.807Z" fill="white"/>
<path fill-rule="evenodd" clip-rule="evenodd" d="M164.063 185.807H189.198V192.305H172.461V201.133H187.604V207.569H172.461V217.932H189.382V224.43H164.063V185.807Z" fill="white"/>
<path fill-rule="evenodd" clip-rule="evenodd" d="M136.053 164C133.605 164 131.365 165.374 130.257 167.556L123.061 181.721C129.508 177.705 137.643 177.45 151.831 178.077L158.982 164H136.053ZM98.4356 185.021C95.9878 185.021 93.7476 186.396 92.6392 188.577L78.2584 216.883C97.5605 217.574 99.7772 215.943 108.92 199.551C112.628 192.901 115.731 188.251 118.964 185.021H98.4356ZM115.682 203.323C113.225 207.733 111.036 211.263 108.882 214.088H133.537L147.89 185.808C145.735 185.754 143.782 185.718 142 185.718C126.75 185.718 124.065 188.29 115.682 203.323ZM83.3637 224.699C80.6848 224.699 77.7149 224.609 74.4027 224.477L69 235.109H95.9194L103.913 219.371C98.7823 223.576 92.8789 224.699 83.3637 224.699Z" fill="url(#paint1_linear_814_97)"/>
</g>
<defs>
<linearGradient id="paint0_linear_814_97" x1="1498.7" y1="145" x2="4.82016" y2="145" gradientUnits="userSpaceOnUse">
<stop stop-color="#224968" stop-opacity="0.1"/>
<stop offset="0.999954" stop-color="#19212A"/>
<stop offset="1" stop-color="#19212A"/>
</linearGradient>
<linearGradient id="paint1_linear_814_97" x1="141.314" y1="282.982" x2="187.737" y2="209.147" gradientUnits="userSpaceOnUse">
<stop stop-color="#1162FF"/>
<stop offset="1" stop-color="#00D469"/>
</linearGradient>
<clipPath id="clip0_814_97">
<rect width="400" height="400" fill="white"/>
</clipPath>
</defs>
</svg>
