<svg width="80" height="80" viewBox="0 0 80 80" fill="none" xmlns="http://www.w3.org/2000/svg">
<rect width="80" height="80" rx="40" fill="#2AFD2D"/>
<path d="M15 46.9009L22.0264 34.4391H26.2687L19.5075 46.9009L26.2687 58.4348H31.0414L24.1475 46.9009L31.0414 34.4391H35.6814L28.5225 46.9009L37.5374 62.2794H24.1475L15 46.9009Z" fill="white"/>
<path d="M56.6818 61.9115L42.3763 62.0574L40.2552 58.3834L54.4281 58.0079L61.0361 46.3855L58.6498 42.2523L52.1081 53.9895L37.8689 54.2502L35.5488 50.2318L49.9206 50.2007L58.7313 34.7042L65.4262 46.3002L56.6818 61.9115Z" fill="white"/>
<path d="M48.867 18L56.1461 30.316L54.0249 33.9899L46.6133 21.9036L33.244 21.9921L30.8577 26.1253L44.2932 25.922L51.6386 38.1232L49.3186 42.1416L42.1058 29.7108L24.2801 29.8287L30.9751 18.2328L48.867 18Z" fill="white"/>
</svg>
