<svg width="80" height="80" viewBox="0 0 80 80" fill="none" xmlns="http://www.w3.org/2000/svg">
<rect width="80" height="80" rx="40" fill="#2482E8"/>
<path d="M33.0994 27.9015C33.9999 26.5934 34.8921 25.3301 35.7745 24.0601C36.8979 22.4432 38.0135 20.8207 39.1434 19.161C39.9996 17.6427 40.2038 17.6275 41.1739 19.0334C44.7126 24.1611 48.2443 29.2937 51.811 34.4486C53.8252 37.3609 55.8026 40.2519 57.7897 43.1364C60.1431 46.5526 62.5059 49.9623 64.8592 53.3786C64.9716 53.5418 65.0307 53.7417 65.0488 53.9724C61.7348 54.0304 58.4867 54.0406 55.2025 54.0289C52.9214 50.7911 50.6647 47.5832 48.4343 44.357C45.9462 40.7581 43.4829 37.1421 41.0068 33.5349C40.5569 32.8796 40.4745 32.8763 40.014 33.5415C36.884 38.0629 33.7581 42.5873 30.6334 47.1123C30.557 47.223 30.5093 47.3534 30.4016 47.5671C31.9145 47.5671 33.3397 47.5542 34.7644 47.5757C35.1466 47.5814 35.3599 47.4364 35.5681 47.1309C36.9466 45.108 38.3436 43.0977 39.7371 41.0851C39.9688 40.7505 40.2131 40.4247 40.507 40.0181C43.7201 44.6922 46.8798 49.2888 50.0314 53.9215C50.0156 54.0061 50.0078 54.0546 49.944 54.107C49.353 54.1226 48.8181 54.1344 48.2257 54.1339C44.8824 54.1299 41.5965 54.1381 38.2532 54.1339C35.1594 54.1292 32.1229 54.1369 29.029 54.132C26.5715 54.1167 24.1712 54.1092 21.7709 54.1128C20.0958 54.1154 18.4208 54.1333 16.7457 54.1444C16.2587 54.1206 15.7718 54.0968 15.0488 54.0615C15.9231 52.7422 16.7013 51.5678 17.4915 50.353C18.0661 49.5514 18.648 48.8036 19.188 48.0266C21.4442 44.7807 23.6878 41.526 25.9461 38.2336C26.3609 37.6233 26.7708 37.0573 27.1694 36.4835C28.3779 34.744 29.5818 33.0012 30.7879 31.26C31.5538 30.1542 32.3205 29.0489 33.0994 27.9015Z" fill="#FEFEFF"/>
</svg>
