<svg width="80" height="80" viewBox="0 0 80 80" fill="none" xmlns="http://www.w3.org/2000/svg">
<rect width="80" height="80" rx="40" fill="#4B4D4D"/>
<path d="M64.8757 50.8824V48.4614C64.8757 48.0114 64.1187 47.5824 62.7597 47.1954L62.7927 44.1824C62.7927 39.5404 61.3527 35.0114 58.6667 31.2074C55.9712 27.3958 52.1718 24.5025 47.7807 22.9174L47.6837 22.3134C47.6334 21.9899 47.4919 21.6874 47.2757 21.4414C47.0585 21.1945 46.776 21.0139 46.4607 20.9204C42.2398 19.6932 37.7567 19.6932 33.5357 20.9204C33.2187 21.0134 32.9357 21.1934 32.7177 21.4404C32.5007 21.6864 32.3577 21.9884 32.3077 22.3124L32.2147 22.8754C27.7969 24.4454 23.9696 27.3373 21.2527 31.1584C18.5491 34.9629 17.0957 39.5141 17.0937 44.1814V47.2074C15.7537 47.5934 15.0067 48.0174 15.0067 48.4644V50.8854C14.9851 51.0275 15.016 51.1725 15.0937 51.2934C15.7622 50.7993 16.5282 50.4533 17.3407 50.2784C19.4127 49.7784 21.5197 49.4284 23.6437 49.2324C24.2383 49.1659 24.8402 49.2257 25.4101 49.4078C25.98 49.59 26.505 49.8904 26.9507 50.2894C28.5976 51.7788 30.7393 52.6028 32.9597 52.6014H46.9237C49.1442 52.6027 51.2858 51.7779 52.9317 50.2874C53.3767 49.8863 53.9015 49.5837 54.4715 49.3995C55.0416 49.2153 55.6442 49.1535 56.2397 49.2184C58.3627 49.4144 60.4697 49.7624 62.5417 50.2604C63.3118 50.4062 64.0395 50.7222 64.6717 51.1854C64.7067 51.2204 64.7497 51.2514 64.7797 51.2844C64.8583 51.166 64.8924 51.0235 64.8757 50.8824V50.8824Z" fill="white"/>
<path d="M26.7037 44.1142L26.7038 44.1149C26.7048 44.5938 26.7123 45.0726 26.7262 45.5513C23.5665 45.7331 20.4278 46.1817 17.3438 46.8923V44.1814C17.3466 39.5669 18.7842 35.0675 21.4575 31.3063C24.0071 27.7209 27.5453 24.9628 31.6329 23.3637C28.5548 28.6453 26.7105 35.9843 26.7037 44.1142Z" fill="white" stroke="#4B4D4D" stroke-width="0.5"/>
<path d="M62.5397 44.1782L62.5057 46.8702C61.6583 46.6522 60.8014 46.4731 59.9376 46.3333C59.9694 45.5988 59.9877 44.8593 59.9877 44.1112C60.0163 39.668 59.4119 35.2456 58.1947 30.9769C60.9994 34.7691 62.5285 39.3675 62.5406 44.1057L62.5397 44.1782Z" fill="white" stroke="#4B4D4D" stroke-width="0.5"/>
<path d="M56.2113 49.4719L56.2113 49.4719C55.6512 49.4099 55.0844 49.4669 54.5478 49.6391C54.0115 49.8113 53.5175 50.0948 53.0982 50.4711C51.4059 52.0028 49.2042 52.8502 46.9216 52.8484M56.2113 49.4719L46.9218 52.5984M56.2113 49.4719L56.2158 49.4723C58.3268 49.6672 60.4219 50.0152 62.4832 50.5124L62.5418 50.2694L62.4953 50.515C63.1855 50.6458 63.8417 50.9146 64.4247 51.3049C64.2984 51.4097 64.1098 51.527 63.847 51.6517C63.4443 51.843 62.9022 52.036 62.2302 52.2259C60.8871 52.6055 59.052 52.9653 56.8352 53.2762C52.4034 53.8977 46.4696 54.3204 39.9468 54.3204C33.4245 54.3204 27.4898 53.8992 23.057 53.2783C20.8398 52.9677 19.0043 52.608 17.6611 52.228C16.9891 52.0379 16.447 51.8446 16.0444 51.6529C15.7905 51.532 15.606 51.4182 15.48 51.3157C16.0638 50.9296 16.7148 50.6543 17.4002 50.5046L17.4002 50.5047L17.4053 50.5034C19.4667 50.0072 21.5609 49.6592 23.6728 49.4643L23.6728 49.4644L23.6769 49.4639C24.2376 49.4029 24.8048 49.4611 25.3414 49.6349C25.8779 49.8086 26.3716 50.0938 26.7901 50.4718M56.2113 49.4719L32.9638 52.8484C30.6824 52.8492 28.4821 52.0022 26.7901 50.4718M46.9216 52.8484L46.9218 52.5984M46.9216 52.8484H46.9218V52.5984M46.9216 52.8484H32.9639L32.9638 52.5984H46.9218M26.7901 50.4718C26.7902 50.4718 26.7902 50.4719 26.7902 50.4719L26.9578 50.2864L26.7901 50.4718Z" fill="white" stroke="#4B4D4D" stroke-width="0.5"/>
<path d="M39.9398 27.1074L34.5938 36.1294L39.9398 39.4194V27.1064V27.1074Z" fill="#4B4D4D"/>
<path d="M39.9419 27.1104V39.4164L45.2869 36.1324L39.9419 27.1104ZM39.9419 41.2034V45.4944C40.0419 45.3524 45.2869 37.9144 45.2869 37.9114L39.9419 41.2044V41.2034Z" fill="#4B4D4D"/>
<path d="M39.9417 41.2055L34.5957 37.9175L39.9417 45.4975V41.2035V41.2055Z" fill="#4B4D4D"/>
</svg>
