<?xml version="1.0" encoding="UTF-8"?><svg id="Layer_1" xmlns="http://www.w3.org/2000/svg" viewBox="0 0 117 149"><defs><style>.cls-1{fill:#33384d;}.cls-2{fill:#4e7af2;}</style></defs><g><path class="cls-2" d="M79.81,38.56l-18.39-11.13-.75-.45c-.35-.2-.7-.35-1.1-.45-.3-.1-.7-.15-1.1-.15s-.75,.05-1.15,.15c-.35,.1-.7,.25-1.05,.45-.15,.1-15.44,9.42-18.95,11.48-.65,.35-1.05,1.05-1,1.8,.05,.75,.45,1.4,1.1,1.71l1.55,.75c.25,.15,.6,.2,.9,.2,.35,0,.7-.1,1-.25l17.59-10.68,17.74,10.73c.3,.2,.65,.3,1.05,.3,.3,0,.6-.05,.9-.2l1.55-.75c.65-.3,1.1-1,1.1-1.71,.05-.75-.35-1.4-1-1.8h0Z"/><path class="cls-2" d="M85.53,49.29h-.2v-.25l-2.15,1.1c-.7,.35-1.1,1.05-1.1,1.8v20.9l-16.49,9.52c-.6,.35-1,1-1,1.75v1.71c0,1.15,.85,2.06,1.9,2.06,.35,0,.75-.1,1.1-.3l17.74-10.23c.35-.2,.65-.45,.9-.7,.3-.3,.5-.6,.7-.9,.2-.35,.35-.7,.45-1.05,.1-.4,.15-.75,.15-1.15v-22.25c0-1.1-.9-2.01-2.01-2.01h0Z"/><path class="cls-2" d="M54.35,83.83l-1-.6-18.44-10.38v-20.9c0-.75-.45-1.45-1.1-1.8l-1.45-.7c-.3-.15-.6-.25-.9-.25-.5,0-1,.2-1.4,.55-.4,.4-.6,.9-.6,1.45v22.25c0,.4,.05,.75,.15,1.15,.1,.35,.25,.7,.45,1.05,.2,.35,.45,.65,.7,.9,.25,.25,.55,.5,.9,.7l19.7,11.13c.3,.15,.65,.25,1,.25,1.1,0,2.01-.9,2.01-2.01v-2.66h-.05l.05-.15h0Z"/><path class="cls-1" d="M91.18,34.62c-.13-.47-.43-.86-.86-1.11l-29.82-17.24-.11-.05s-.1-.04-.15-.07c-.09-.04-.19-.09-.3-.13l-.45-.15c-.16-.05-.36-.12-.58-.13-.35-.05-.7-.05-1.05,0l-.09,.02s-.09,.02-.14,.03c-.09,.01-.2,.03-.32,.07l-.45,.15c-.16,.06-.37,.12-.57,.26l-29.81,17.23c-.55,.32-.9,.91-.9,1.56,0,.69,.34,1.27,.9,1.56l11.49,6.98c.36,.26,.76,.3,.98,.3,.67,0,1.25-.32,1.6-.88l.03-.05c.46-.91,.17-1.98-.67-2.46l-8.89-5.43,27-15.61h.17l.05-.06h.1l.05-.05h0c.07,.02,.13,.04,.18,.04,.04,.02,.1,.03,.16,.05l29.77,17.21c.39,.25,.86,.33,1.32,.21,.48-.12,.9-.43,1.15-.86,.25-.43,.32-.92,.19-1.39h0Z"/><path class="cls-1" d="M95.78,42.77h0c-.53-.32-1.17-.33-1.8-.01l-11.11,6.59c-.43,.25-.73,.64-.85,1.11-.13,.47-.06,.96,.19,1.39,.25,.43,.64,.73,1.11,.85s.96,.06,1.39-.19l8.34-4.95v31.3c-.02,.06-.04,.13-.04,.18-.01,.03-.03,.07-.03,.11l-.25,.25-29.76,17.21c-.43,.25-.73,.64-.85,1.11-.12,.46-.06,.95,.18,1.37,.02,.02,.12,.18,.17,.23,.22,.26,.49,.45,.83,.54,.47,.12,.96,.06,1.39-.19l1.96-1.13,27.9-16.13c.19-.07,.37-.19,.52-.33,.17-.12,.29-.24,.39-.34,.06-.06,.13-.14,.19-.22,.03-.05,.07-.09,.11-.13l.07-.09s.05-.07,.07-.1c.07-.1,.16-.22,.23-.39,0-.02,.02-.03,.03-.05,.06-.1,.14-.24,.19-.4l.15-.45c.05-.15,.11-.33,.13-.54,.05-.2,.05-.39,.05-.55V44.33c0-.69-.34-1.27-.9-1.56Z"/><path class="cls-1" d="M53.1,82.72c-1.03,0-1.84,.81-1.84,1.84v10.43l-27.04-15.58s-.05-.06-.08-.08c-.03-.04-.08-.08-.13-.11l-.1-.1v-.16l-.06-.05V44.42c0-1.01-.8-1.84-1.79-1.84s-1.84,.81-1.84,1.84v34.48c0,.15,.02,.28,.04,.38,0,.04,.01,.08,.01,.13v.09l.03,.09s.02,.09,.03,.14c.01,.09,.03,.2,.07,.32l.15,.45c.05,.14,.11,.24,.15,.32,.02,.03,.04,.07,.05,.08,.08,.22,.22,.46,.39,.63,.03,.04,.07,.08,.11,.13,.06,.08,.13,.16,.19,.22,.06,.06,.14,.13,.22,.19,.04,.04,.09,.07,.13,.11l.09,.07c.08,.06,.15,.1,.22,.14,.06,.03,.11,.07,.18,.11l29.84,17.25c.34,.22,.78,.24,.91,.24,.35,0,.65-.1,1.01-.34,.54-.32,.88-.91,.88-1.55v-13.55c0-1.03-.81-1.84-1.84-1.84h0Z"/><path class="cls-2" d="M107.03,27.24L61.92,1.18c-1.05-.6-2.25-.9-3.46-.9s-2.41,.3-3.46,.9L9.89,27.24c-2.11,1.2-3.46,3.51-3.46,5.97v52.08c0,2.46,1.3,4.76,3.46,5.97l45.11,26.06c1.05,.6,2.25,.9,3.46,.9s2.41-.3,3.46-.9l45.11-26.06c2.11-1.2,3.46-3.51,3.46-5.97V33.21c0-2.46-1.3-4.76-3.46-5.97h0Zm-4.16,6.37v51.27l-44.41,25.66L14.05,84.88V33.61L58.46,7.94l44.41,25.66h0Z"/></g><path class="cls-1" d="M8.73,134.84h1.4c.15,0,.25,.1,.25,.25v12.97c0,.15-.1,.25-.25,.25h-1.4c-.15,0-.25-.1-.25-.25v-5.99H1.89v5.99c0,.15-.1,.25-.25,.25H.25c-.15,0-.25-.1-.25-.25v-12.97c0-.15,.1-.25,.25-.25H1.64c.15,0,.25,.1,.25,.25v5.39h6.59v-5.39c0-.1,.1-.25,.25-.25Z"/><path class="cls-1" d="M16.91,147.86v-12.47c0-.25,.25-.5,.5-.5h7.48c.15,0,.25,.1,.25,.25v1.1c0,.15-.1,.25-.25,.25h-6.09v3.99h5.39c.15,0,.25,.1,.25,.25v1.1c0,.15-.1,.25-.25,.25h-5.39v4.69h6.59c.15,0,.25,.1,.25,.25v1.1c0,.15-.1,.25-.25,.25h-7.98c-.25,0-.5-.25-.5-.5h0Z"/><path class="cls-1" d="M39.46,148.36c-.1,0-.2-.05-.2-.15-.2-.35-.4-.75-.65-1.15-.3-.5-.55-.95-.9-1.5-.3-.5-.65-1-1-1.55-.35-.55-.7-1-1-1.45-.3,.45-.65,.95-1,1.45-.35,.5-.7,1-1,1.55-.3,.5-.6,1-.9,1.5-.25,.4-.45,.8-.65,1.15-.05,.1-.1,.15-.2,.15h-1.5c-.2,0-.3-.2-.2-.35,.55-1,1.15-2.05,1.85-3.09,.8-1.2,1.6-2.4,2.44-3.64l-4.04-5.99c-.1-.15,0-.4,.2-.4h1.25c.3,0,.6,.15,.75,.4l3.04,4.64,3.04-4.59c.15-.25,.45-.4,.75-.4h1.2c.2,0,.3,.25,.2,.4l-3.99,5.88c.9,1.25,1.7,2.49,2.49,3.69,.7,1.05,1.3,2.1,1.89,3.14,.1,.15-.05,.35-.2,.35l-1.7-.05h0Z"/><path class="cls-1" d="M56.37,148.36c-.1,0-.2-.05-.25-.15-.2-.55-.4-1.05-.55-1.55-.2-.55-.4-1.15-.6-1.75h-6.13l-1.15,3.29c-.05,.1-.15,.15-.25,.15h-1.45c-.2,0-.3-.15-.25-.35,.5-1.3,.9-2.49,1.35-3.64,.45-1.2,.9-2.35,1.35-3.44,.45-1.1,.85-2.15,1.3-3.14,.4-.95,.85-1.9,1.25-2.79,.05-.1,.15-.15,.25-.15h1.4c.1,0,.2,.05,.25,.15,.45,.95,.85,1.85,1.3,2.79,.45,1,.85,2.05,1.3,3.14,.45,1.1,.9,2.24,1.35,3.44,.4,1.1,.85,2.35,1.35,3.64,.05,.15-.05,.35-.25,.35h-1.54Zm-1.94-5.04c-.4-1.15-.85-2.24-1.25-3.29-.4-1.05-.85-2.1-1.3-3.04-.45,1-.9,2-1.3,3.04-.4,1.05-.8,2.15-1.2,3.29h5.04Z"/><path class="cls-1" d="M71.38,141.72h1.4c.15,0,.25,.1,.25,.25v6.04c-.15,.05-.4,.1-.65,.15-.3,.05-.65,.15-1,.2-.4,.05-.8,.1-1.25,.15-.45,.05-.9,.05-1.4,.05-.95,0-1.8-.15-2.6-.45-.8-.3-1.45-.75-2-1.35-.55-.6-1-1.35-1.3-2.19-.3-.85-.45-1.85-.45-2.99s.15-2.15,.5-2.99c.35-.9,.8-1.6,1.4-2.19,.6-.6,1.25-1.05,2.05-1.35,.8-.3,1.64-.45,2.49-.45,.6,0,1.15,.05,1.64,.1,.5,.1,.9,.15,1.2,.25,.25,.1,.75,.3,1.05,.45,.1,.05,.15,.2,.1,.3l-.4,1.1c-.05,.15-.2,.2-.35,.15-.35-.2-.75-.35-1.25-.45-.6-.15-1.25-.25-1.89-.25-.7,0-1.3,.1-1.89,.35-.55,.25-1.05,.6-1.45,1.1-.4,.45-.7,1.05-.95,1.7-.2,.65-.35,1.4-.35,2.24s.1,1.55,.3,2.19c.2,.65,.5,1.25,.85,1.7,.4,.5,.85,.85,1.45,1.1,.6,.25,1.25,.4,2,.4,.55,0,1-.05,1.4-.1,.4-.05,.65-.1,.85-.15v-4.79c0-.15,.15-.25,.25-.25h0Z"/><path class="cls-1" d="M88.39,148.36c-.1,0-.2-.05-.25-.15-.2-.55-.4-1.05-.55-1.55-.2-.55-.4-1.15-.6-1.75h-6.09l-1.15,3.29c-.05,.1-.15,.15-.25,.15h-1.45c-.15,0-.3-.15-.25-.35,.5-1.3,.9-2.49,1.35-3.64,.45-1.2,.9-2.35,1.35-3.44,.45-1.1,.85-2.15,1.3-3.14,.4-.95,.85-1.9,1.25-2.79,.05-.1,.15-.15,.25-.15h1.4c.1,0,.2,.05,.25,.15,.45,.95,.85,1.85,1.3,2.79,.45,1,.85,2.05,1.3,3.14,.45,1.1,.9,2.24,1.35,3.44,.4,1.1,.85,2.35,1.35,3.64,.05,.15-.05,.35-.25,.35h-1.59Zm-1.94-5.04c-.4-1.15-.85-2.24-1.25-3.29-.4-1.05-.85-2.1-1.25-3.04-.45,1-.9,2-1.3,3.04s-.8,2.15-1.2,3.29h4.99Z"/><path class="cls-1" d="M103.06,135.09v1.15c0,.15-.1,.25-.25,.25h-3.99v11.57c0,.15-.1,.25-.25,.25h-1.4c-.15,0-.25-.1-.25-.25v-11.57h-3.99c-.15,0-.25-.1-.25-.25v-1.15c0-.15,.1-.25,.25-.25h9.88c.15,0,.25,.15,.25,.25Z"/><path class="cls-1" d="M108.19,147.86v-12.47c0-.25,.25-.5,.5-.5h7.48c.15,0,.25,.1,.25,.25v1.1c0,.15-.1,.25-.25,.25h-6.09v3.99h5.39c.15,0,.25,.1,.25,.25v1.1c0,.15-.1,.25-.25,.25h-5.39v4.69h6.59c.15,0,.25,.1,.25,.25v1.1c0,.15-.1,.25-.25,.25h-7.98c-.25,0-.45-.25-.5-.5h0Z"/></svg>