<svg width="80" height="80" viewBox="0 0 80 80" fill="none" xmlns="http://www.w3.org/2000/svg">
<rect x="0.3868" y="0.3868" width="79.2264" height="79.2264" rx="39.6132" fill="url(#paint0_linear_5309_537)"/>
<path d="M45.0592 11.6398V18.8946C50.0944 20.0964 54.534 23.0592 57.5764 27.2482C60.6187 31.4371 62.0633 36.576 61.6492 41.7369C61.2351 46.8978 58.9896 51.7405 55.3183 55.3905C51.647 59.0406 46.7918 61.2574 41.6294 61.6407V56.7076C45.7313 56.3108 49.5438 54.4183 52.3402 51.3908C55.1367 48.3633 56.7216 44.4125 56.7928 40.2914C56.864 36.1702 55.4167 32.167 52.7265 29.0446C50.0364 25.9222 46.2915 23.899 42.2058 23.3607V31.1633C40.3791 30.7113 38.4572 30.8366 36.7046 31.5221C34.952 32.2076 33.4549 33.4195 32.4193 34.991C31.3838 36.5625 30.8606 38.4164 30.9219 40.2976C30.9831 42.1787 31.6258 43.9947 32.7614 45.4954L34.3681 43.8885C33.4625 42.5685 33.0472 40.9732 33.194 39.3791C33.3409 37.7849 34.0407 36.2924 35.1722 35.1601C36.3037 34.0278 37.7955 33.3271 39.3893 33.1793C40.9831 33.0316 42.5783 33.4461 43.8986 34.3511L45.5053 32.7441C44.8659 32.2571 44.1641 31.8579 43.4187 31.5572V27.8241C46.3601 28.6466 48.9043 30.5063 50.5811 33.0595C52.2579 35.6126 52.954 38.6866 52.5405 41.7132C52.1271 44.7398 50.6321 47.5144 48.332 49.5241C46.0319 51.5338 43.0821 52.6427 40.028 52.6459V68.8015C40.5705 68.8015 41.1078 68.7868 41.6399 68.7572C48.6869 68.3569 55.3416 65.3822 60.3403 60.398C65.339 55.4137 68.3336 48.767 68.7555 41.72C69.1774 34.673 66.9972 27.7163 62.6288 22.1711C58.2604 16.6259 52.0082 12.8783 45.0592 11.6398V11.6398ZM49.115 40.0015C49.117 37.911 48.3975 35.8838 47.078 34.2624L45.4792 35.8615C46.479 37.182 46.9672 38.8197 46.8536 40.4722C46.74 42.1247 46.0324 43.6802 44.8613 44.8514C43.6903 46.0227 42.1351 46.7304 40.4829 46.844C38.8307 46.9576 37.1933 46.4693 35.8731 45.4694L34.2768 47.0659C34.9799 47.6411 35.7661 48.1063 36.6086 48.4459V52.1815C33.6639 51.3606 31.1164 49.5002 29.4377 46.945C27.759 44.3898 27.0629 41.3127 27.4782 38.2836C27.8936 35.2545 29.3922 32.4785 31.6967 30.4696C34.0012 28.4607 36.9554 27.355 40.0123 27.3572V18.3181V11.2015C32.8115 11.1996 25.8712 13.896 20.5598 18.759C15.2484 23.622 11.9513 30.2989 11.3185 37.4731C10.6857 44.6474 12.7632 51.7984 17.1414 57.5164C21.5195 63.2343 27.8806 67.1043 34.9706 68.3633V61.1007C29.944 59.8903 25.5148 56.9245 22.4806 52.7374C19.4465 48.5504 18.0069 43.4173 18.4212 38.2628C18.8355 33.1083 21.0764 28.2712 24.7403 24.6227C28.4042 20.9742 33.2503 18.7541 38.4056 18.3624V23.2955C34.3038 23.6926 30.4916 25.5854 27.6954 28.6131C24.8992 31.6409 23.3147 35.5918 23.2437 39.7129C23.1728 43.834 24.6205 47.8371 27.3109 50.9593C30.0012 54.0814 33.7461 56.1043 37.8318 56.6424V48.8398C39.1724 49.1696 40.5704 49.1902 41.9201 48.9002C43.2699 48.6102 44.536 48.0171 45.6229 47.1657C46.7098 46.3144 47.5889 45.227 48.1939 43.9859C48.7989 42.7448 49.1139 41.3823 49.115 40.0015V40.0015Z" fill="white"/>
<path d="M44.2162 39.9988C44.2169 40.9006 43.9275 41.7787 43.3908 42.5033C42.8541 43.228 42.0986 43.7607 41.2359 44.0229C40.3732 44.2851 39.4491 44.2627 38.6001 43.9592C37.7511 43.6557 37.0222 43.0871 36.5211 42.3373C36.02 41.5876 35.7734 40.6966 35.8176 39.7959C35.8617 38.8951 36.1944 38.0325 36.7665 37.3355C37.3385 36.6384 38.1196 36.1439 38.9942 35.9249C39.8689 35.706 40.7907 35.7743 41.6236 36.1196C42.1342 36.3319 42.5978 36.6427 42.9881 37.0344C43.3784 37.4261 43.6876 37.8909 43.898 38.4022C44.1095 38.9116 44.2185 39.4577 44.2188 40.0092L44.2162 39.9988Z" fill="white"/>
<rect x="0.3868" y="0.3868" width="79.2264" height="79.2264" rx="39.6132" stroke="url(#paint1_linear_5309_537)" stroke-width="0.773599"/>
<defs>
<linearGradient id="paint0_linear_5309_537" x1="40" y1="36.96" x2="40" y2="-43.04" gradientUnits="userSpaceOnUse">
<stop stop-color="#00182B"/>
<stop offset="0.136" stop-color="#081637"/>
<stop offset="0.381" stop-color="#201057"/>
<stop offset="0.707" stop-color="#45088A"/>
<stop offset="1" stop-color="#6C00BF"/>
</linearGradient>
<linearGradient id="paint1_linear_5309_537" x1="-30.9577" y1="153.878" x2="155.917" y2="-102.381" gradientUnits="userSpaceOnUse">
<stop stop-color="#0035FF"/>
<stop offset="0.25" stop-color="#7137FF"/>
<stop offset="0.41" stop-color="#F048C7"/>
<stop offset="0.656309" stop-color="#FFD535"/>
<stop offset="0.77" stop-color="white"/>
<stop offset="1" stop-color="#0035FF"/>
</linearGradient>
</defs>
</svg>
