<svg width="80" height="80" viewBox="0 0 80 80" fill="none" xmlns="http://www.w3.org/2000/svg">
<rect width="80" height="80" rx="40" fill="#757AF0"/>
<path d="M22.3928 26.5834H57.6071V49.7499H22.3928V26.5834Z" stroke="white" stroke-width="0.5"/>
<rect width="35.7143" height="9.5238" transform="matrix(1 0 0 -1 22.1428 26.3334)" fill="white"/>
<rect x="0.25" y="-0.25" width="35.2143" height="8.07142" transform="matrix(1 0 0 -1 22.1428 57.262)" stroke="white" stroke-width="0.5"/>
<rect width="17.619" height="5.23809" transform="matrix(1 0 0 -1 22.1428 63.0001)" fill="white"/>
<rect width="16.6667" height="5.23809" transform="matrix(1 0 0 -1 41.1904 63.0001)" fill="white"/>
<path d="M14.1584 37.762H21.3136V49.1906H14.1584V37.762Z" fill="white"/>
<rect x="22.1428" y="37.762" width="11.4286" height="11.4286" fill="white"/>
<rect x="46.9048" y="26.3334" width="10.9524" height="10.9524" fill="white"/>
<mask id="path-10-inside-1_1_2624" fill="white">
<path fill-rule="evenodd" clip-rule="evenodd" d="M45 29.1906H35.4762V37.762H33.5714V49.1741H45V40.6192H45V29.1906Z"/>
</mask>
<path d="M35.4762 29.1906V28.6906H34.9762V29.1906H35.4762ZM45 29.1906H45.5V28.6906H45V29.1906ZM35.4762 37.762V38.262H35.9762V37.762H35.4762ZM33.5714 37.762V37.262H33.0714V37.762H33.5714ZM33.5714 49.1741H33.0714V49.6741H33.5714V49.1741ZM45 49.1741V49.6741H45.5V49.1741H45ZM45 40.6192V40.1192H44.5V40.6192H45ZM45 40.6192V41.1192H45.5V40.6192H45ZM35.4762 29.6906H45V28.6906H35.4762V29.6906ZM35.9762 37.762V29.1906H34.9762V37.762H35.9762ZM33.5714 38.262H35.4762V37.262H33.5714V38.262ZM34.0714 49.1741V37.762H33.0714V49.1741H34.0714ZM45 48.6741H33.5714V49.6741H45V48.6741ZM44.5 40.6192V49.1741H45.5V40.6192H44.5ZM45 40.1192H45V41.1192H45V40.1192ZM44.5 29.1906V40.6192H45.5V29.1906H44.5Z" fill="white" mask="url(#path-10-inside-1_1_2624)"/>
<rect x="25" y="40.6191" width="5.71429" height="5.71428" fill="#757AF0"/>
<rect x="49.762" y="29.1906" width="5.23809" height="5.23809" fill="#757AF0"/>
<path d="M58.3571 37.762H65.5V49.1906H61.9286H58.3571V37.762Z" fill="white"/>
<path d="M14.413 54.1786H21.0558V49.4406H14.413V54.1786Z" stroke="white" stroke-width="0.5"/>
<path d="M58.6071 54.1786H65.25V49.4406H58.6071V54.1786Z" stroke="white" stroke-width="0.5"/>
<path d="M30 27.2069V32.9999C30 32.9999 34.9611 31.5517 39.8701 31.5517C44.7792 31.5517 50 32.9999 50 32.9999V27.2069C50 27.2069 45.3247 26 39.8701 26C34.4156 26 30 27.2069 30 27.2069Z" fill="#757AF0" stroke="#757AF0" stroke-width="0.47619"/>
<path d="M30.9524 26.0953V31.8096C30.9524 31.8096 35.5 30.381 40 30.381C44.5 30.381 49.2857 31.8096 49.2857 31.8096V26.0953C49.2857 26.0953 45 24.9048 40 24.9048C35 24.9048 30.9524 26.0953 30.9524 26.0953Z" fill="white"/>
<path d="M35.5222 58.5543L34.47 59.817L30.3685 57.3106L30.1362 57.1686L30.0145 57.4121L29.6544 58.1323L21.75 53.8043V49.4406H57.75V53.0991L50.7191 57.4647L50.1387 57.0778L49.9866 56.9764L49.8438 57.0906L46.4318 59.8202L45.1601 58.7604L45.0032 58.6297L44.8438 58.7572L40.2471 62.4346L35.881 58.528L35.688 58.3554L35.5222 58.5543Z" fill="white" stroke="#757AF0" stroke-width="0.5"/>
</svg>
