<svg width="1000" height="1001" viewBox="0 0 1000 1001" fill="none" xmlns="http://www.w3.org/2000/svg">
<circle cx="500" cy="500.995" r="500" fill="#40B498"/>
<path fill-rule="evenodd" clip-rule="evenodd" d="M536.533 203.087L499.826 166.379L463.118 203.087L352.838 313.366L352.838 460.197L499.826 313.209L643.656 457.039L643.656 310.209L536.533 203.087ZM726.715 393.269L726.715 540.099L786.45 599.834L823.158 636.542L896.573 563.127L859.866 526.419L726.715 393.269ZM274.455 538.58L274.455 391.75L139.786 526.419L103.078 563.127L176.493 636.542L213.201 599.834L274.455 538.58ZM540.632 470.462L503.924 433.754L467.217 470.462L281.097 656.582L244.389 693.289L317.804 766.704L354.512 729.997L503.924 580.584L653.337 729.997L690.044 766.704L763.459 693.289L726.752 656.582L540.632 470.462Z" fill="white"/>
</svg>
