<svg width="80" height="80" viewBox="0 0 80 80" fill="none" xmlns="http://www.w3.org/2000/svg">
<rect width="80" height="80" rx="40" fill="#090858"/>
<path d="M37.6862 43.67C38.6023 43.5617 39.5265 43.4985 40.4329 43.336C42.4792 42.9692 44.2012 41.9458 45.587 40.4369C47.5437 38.3064 49.4228 36.1042 51.3197 33.9192C53.0686 31.9046 54.9363 30.0394 57.4024 28.8983C59.2922 28.0238 61.2727 27.5397 63.395 27.5806C63.2257 27.6784 63.0248 27.7409 62.7837 27.8159C62.8939 28.0437 62.9978 28.2583 63.0979 28.4651C62.5785 28.6657 62.1114 28.8461 61.6515 29.0238C61.8023 29.3003 61.898 29.4758 61.9495 29.6578C61.0626 29.799 60.2199 29.9337 59.3773 30.0684C56.9901 30.6468 55.1176 32.0526 53.5829 33.8827C52.0835 35.6707 50.7392 37.5878 49.2908 39.4198C48.2327 40.7583 47.1164 42.0508 45.9707 43.4014C44.7595 44.4104 43.4939 45.1911 42.0399 45.6323C40.2742 46.1681 38.4792 46.401 36.6407 46.0678C36.7363 45.8096 36.7858 45.5533 36.9335 45.3811C37.305 44.9481 37.7208 44.5531 38.1181 44.1436C37.9583 43.9683 37.8222 43.8192 37.6862 43.67Z" fill="white"/>
<path d="M16.5745 42.0375C15.1989 41.0973 13.9967 39.9936 13.4135 38.3827C12.6129 36.1715 12.9582 34.1223 14.595 32.4251C16.2539 30.7052 18.3081 30.2204 20.5916 30.9806C22.7864 31.7113 24.2093 33.2508 25.0204 35.3904C25.0987 35.5971 25.2127 35.7904 25.2996 36.0602C24.7673 36.6788 24.8999 35.8482 24.6002 35.8173C24.5287 36.1956 24.4557 36.5822 24.3827 36.9689C24.3387 36.9574 24.2948 36.9458 24.2509 36.9343C24.1641 36.6973 24.0773 36.4604 23.9905 36.2234C23.9041 36.2449 23.8178 36.2664 23.7315 36.2879C23.8067 36.7641 23.8819 37.2403 23.9677 37.7833C23.7074 37.5328 23.5311 37.3631 23.3548 37.1934C22.8959 36.5201 22.5071 35.7828 21.9638 35.1863C20.7097 33.8096 19.0822 33.6334 17.3957 34.1062C15.8536 34.5385 15.0433 36.3109 15.6763 37.8719C15.9613 38.5748 16.4778 39.2017 16.9687 39.7975C17.3406 40.2489 17.8384 40.5965 18.2978 41.061C18.3252 41.4766 18.5701 41.4909 18.8237 41.4928C18.8237 41.4928 18.8263 41.4916 18.8351 41.5218C18.8544 41.6607 18.865 41.7693 18.8756 41.8778C18.7492 41.8749 18.6108 41.9045 18.4987 41.863C18.1116 41.7199 17.8274 41.881 17.9552 42.2363C18.1317 42.7267 17.8367 42.7474 17.5265 42.8125C17.5265 42.8125 17.5086 42.8135 17.5097 42.7678C17.317 42.3322 17.0589 42.0302 16.5745 42.0375Z" fill="white"/>
<path d="M30.7298 38.6553C30.7432 38.7768 30.7565 38.8983 30.765 39.0682C30.7602 39.1167 30.7647 39.1274 30.7647 39.1274C30.786 39.1876 30.8072 39.2479 30.8229 39.3865C30.7479 39.6234 30.6784 39.7818 30.558 40.0562C30.4058 39.6987 30.3133 39.4816 30.1762 39.1598C30.0482 39.5487 29.9617 39.8118 29.8627 40.1126C29.6771 40.0068 29.562 39.9413 29.4326 39.8675C29.3199 39.9965 29.2186 40.1125 29.1173 40.2285C28.4596 37.6776 29.4488 35.7214 31.3961 34.1747C32.2358 33.5078 33.191 32.9848 34.1021 32.4098C34.807 31.9648 35.525 31.5406 36.3298 31.0507C36.0063 30.783 35.7511 30.5719 35.501 30.3016C35.7886 30.1081 36.0758 29.8524 36.3525 29.8632C37.0691 29.8911 37.1765 29.8122 36.9829 29.1546C37.1373 29.2451 37.2591 29.3331 37.3904 29.4292C37.4194 29.4533 37.4418 29.4621 37.4935 29.4675C37.5441 29.4959 37.5685 29.5207 37.6151 29.5616C37.6866 29.6008 37.7361 29.6241 37.7896 29.6459C37.7936 29.6445 37.7965 29.6525 37.8069 29.659C37.839 29.6774 37.8624 29.6826 37.924 29.6771C38.0739 29.5865 38.1872 29.4999 38.3336 29.404C38.5642 29.2091 38.7684 29.0292 38.951 28.8297C38.9727 28.806 38.8775 28.6751 38.8672 28.5771C39.058 28.4893 39.2178 28.4183 39.3913 28.3413C38.9971 27.7642 38.3203 28.4636 37.8695 27.858C38.1499 27.8054 38.3381 27.7979 38.5037 27.7329C38.7956 27.6183 39.0738 27.4685 39.3578 27.3334C40.5391 27.068 41.7205 26.8026 42.9648 26.5231C42.2431 28.2418 41.075 29.6069 39.6931 30.8583C39.947 31.0954 40.1912 31.3233 40.4162 31.6237C40.3346 31.972 40.2722 32.2479 40.2102 32.5214C39.776 32.4997 39.7465 31.7052 39.2565 32.0931C39.1442 32.182 39.2697 32.5713 39.2872 32.8455C39.1742 32.8585 39.0064 32.8778 38.8073 32.8851C38.6619 32.8068 38.5478 32.7403 38.4338 32.6738C38.4338 32.6738 38.4213 32.6866 38.4173 32.6518C38.346 32.5711 38.2788 32.5252 38.2115 32.4792C38.0946 32.3793 37.9777 32.2794 37.7941 32.1225C36.1692 33.0567 34.521 33.952 32.9298 34.9393C32.0176 35.5053 31.3378 36.3351 30.8851 37.403C30.8163 37.5758 30.7929 37.7005 30.7694 37.8251C30.7695 37.8728 30.7695 37.9205 30.7535 38.0138C30.7276 38.0855 30.7293 38.1107 30.7427 38.1351C30.7445 38.1853 30.7463 38.2355 30.7283 38.3457C30.7156 38.4889 30.7227 38.5721 30.7298 38.6553Z" fill="white"/>
<path d="M58.3874 42.5371C57.5963 44.5644 56.488 46.4067 55.1267 48.099C52.7408 51.0649 49.5806 52.854 46.0392 54.0595C45.7264 54.166 45.4098 54.2616 45.028 54.3429C44.8416 54.1495 44.5864 53.8709 44.6259 53.8197C44.799 53.5955 45.0315 53.3556 45.2907 53.2734C45.7108 53.1401 45.9702 52.9518 45.9384 52.6344C46.47 52.2876 46.9313 52.0066 47.3677 51.6911C47.5215 51.5799 47.6143 51.3843 47.7633 51.2049C49.6367 50.3125 51.3581 49.24 52.6823 47.6765C53.5997 46.5933 54.3512 45.3697 55.2059 44.2249C55.329 44.2224 55.4381 44.2282 55.5141 44.1809C55.7755 44.0179 56.0259 43.8373 56.279 43.6615C56.3764 43.5938 56.4795 43.5304 56.5639 43.4485C57.0171 43.0085 57.4627 42.5608 57.9182 42.1234C57.9716 42.0721 58.0696 42.0673 58.0833 42.0626C58.2011 42.2464 58.2942 42.3917 58.3874 42.5371Z" fill="white"/>
<path d="M37.5735 53.3535C38.1107 53.5366 38.644 53.733 39.1879 53.8939C39.3356 53.9376 39.5232 53.9013 39.6788 53.8552C40.7708 53.532 41.8591 53.1965 42.9695 52.8864C42.3053 53.4933 41.3264 53.696 40.8471 54.5531C40.8195 54.6024 40.7286 54.6387 40.665 54.6421C40.1606 54.6691 39.8476 54.9667 39.5186 55.3209C39.2774 55.5804 39.3386 55.7004 39.5124 55.9169C39.6554 56.0951 39.7506 56.3117 39.83 56.5056C39.7186 56.4925 39.6443 56.4851 39.5408 56.4539C39.3013 56.3962 39.0381 56.2641 38.8892 56.3443C37.8978 56.8782 36.9279 57.4527 35.9593 58.0279C35.83 58.1047 35.747 58.2596 35.5318 58.5044C36.3976 58.5044 37.0925 58.5044 37.7792 58.5375C37.2109 59.0621 36.6509 59.5535 36.066 60.0668C36.2771 60.2043 36.4564 60.3211 36.6357 60.4379C35.0738 60.4379 33.5119 60.4379 31.8728 60.4379C32.6294 58.1445 33.96 56.3849 36.1251 55.1923C35.7906 55.0754 35.5664 54.997 35.3016 54.871C35.23 54.3345 35.6856 54.1427 35.9568 54.0647C36.4834 53.9133 36.6677 53.6093 36.7375 53.1407C36.7573 53.1412 36.777 53.1417 36.8394 53.1836C37.1125 53.2678 37.343 53.3106 37.5735 53.3535Z" fill="white"/>
<path d="M35.8811 41.9182C35.8811 41.9182 35.8368 41.9195 35.8226 41.8725C36.0386 41.2499 36.573 41.1762 37.0775 41.0846C37.4862 41.0105 37.8073 40.8735 37.929 40.4003C38.5785 40.2358 39.2019 40.1384 39.7887 39.9353C41.4977 39.3436 42.5518 37.8046 41.6118 35.7982C41.6374 35.5134 41.3037 35.1216 41.877 35.1009C41.8768 35.1008 41.8765 35.1004 41.862 35.1373C41.8477 35.3776 41.8042 35.5949 41.863 35.7797C41.9058 35.9143 42.0836 36.006 42.2012 36.1169C42.3028 36.0018 42.4047 35.8868 42.506 35.7714C42.5978 35.6668 42.6872 35.56 42.7811 35.4573C42.9006 35.3264 43.0502 35.2145 43.1381 35.0656C43.2505 34.8755 43.3143 34.6566 43.399 34.4501C45.4853 37.3364 44.0615 41.1199 40.5025 42.1169C39.0602 42.5209 37.6136 42.488 36.1183 42.017C35.9993 41.9595 35.9402 41.9389 35.8811 41.9182Z" fill="white"/>
<path d="M36.6845 60.4449C36.4564 60.3211 36.2772 60.2043 36.066 60.0668C36.6509 59.5535 37.2109 59.0621 37.828 58.529C38.8305 58.478 39.7761 58.4686 40.7701 58.4647C41.2498 58.4701 41.6811 58.4701 42.1124 58.4701C42.1264 58.4234 42.1404 58.3768 42.1544 58.3301C41.9542 58.1086 41.754 57.8871 41.5625 57.6265C41.6944 57.0247 42.4187 56.7789 42.3565 56.1076C42.3529 56.0685 42.5437 55.9991 42.6509 55.9659C42.7381 55.9389 42.8355 55.9451 42.9283 55.9366C44.4552 57.0794 45.4964 58.5553 46.0447 60.4519C42.9065 60.4519 39.8199 60.4519 36.6845 60.4449Z" fill="white"/>
<path d="M58.8624 34.9953C59.4513 33.4437 60.3675 32.0844 61.3411 30.7571C61.5889 30.4192 61.8014 30.0554 62.0119 29.6775C61.8979 29.4758 61.8022 29.3003 61.6514 29.0239C62.1113 28.8462 62.5784 28.6658 63.0979 28.4651C62.9977 28.2583 62.8939 28.0438 62.7836 27.816C63.0247 27.741 63.2257 27.6785 63.4434 27.5869C63.5052 27.5486 63.5501 27.5393 63.6425 27.5409C63.6899 27.5519 63.7315 27.5532 63.7315 27.5532L63.7704 27.537C64.3007 27.5366 64.831 27.5361 65.444 27.5655C65.8839 27.5907 66.241 27.586 66.5982 27.5813C66.781 27.5926 66.9637 27.6039 67.214 27.6484C67.4513 27.8254 67.6212 27.9691 67.791 28.1128C67.791 28.1128 67.7862 28.1141 67.7422 28.1074C66.7826 28.0987 66.2501 28.765 65.6596 29.3047C65.4943 29.4557 65.4562 29.7459 65.3597 29.9722C65.3219 30.0224 65.2841 30.0726 65.1919 30.153C64.8853 30.1757 64.4712 30.0719 64.4085 30.1773C64.125 30.6539 63.6405 30.7577 63.2276 31.0085C63.075 31.1012 63.0722 31.4629 63.0316 31.7069C63.0143 31.811 63.0751 31.928 63.0992 32.0342C62.3705 32.2565 61.5939 32.2908 61.1438 32.9968C61.1058 33.0564 60.9777 33.0512 60.9149 33.104C60.7704 33.2254 60.6054 33.3429 60.5103 33.4994C60.1068 34.1636 59.5531 34.6524 58.8624 34.9953Z" fill="white"/>
<path d="M17.5477 42.8382C17.8367 42.7474 18.1317 42.7267 17.9553 42.2363C17.8274 41.881 18.1117 41.7199 18.4987 41.863C18.6108 41.9045 18.7492 41.8749 18.8756 41.8778C18.865 41.7693 18.8545 41.6607 18.8347 41.5233C20.3913 42.7265 21.6577 44.2417 23.0192 45.8442C20.9017 46.0662 18.9076 46.2752 16.8585 46.49C16.7762 45.663 16.698 44.8775 16.6176 44.0696C17.3914 44.0696 18.1154 44.0696 18.9805 44.0696C18.4644 43.6287 18.0166 43.2463 17.5477 42.8382Z" fill="white"/>
<path d="M58.8509 35.0157C59.5531 34.6524 60.1068 34.1635 60.5103 33.4993C60.6054 33.3428 60.7704 33.2254 60.915 33.1039C60.9778 33.0511 61.1058 33.0564 61.1438 32.9967C61.5939 32.2907 62.3705 32.2565 63.0993 32.0341C63.0751 31.9279 63.0143 31.8109 63.0316 31.7069C63.0722 31.4628 63.075 31.1011 63.2276 31.0085C63.6405 30.7577 64.125 30.6538 64.4086 30.1772C64.4712 30.0719 64.8853 30.1756 65.1737 30.1788C63.1683 32.1675 61.7052 34.544 60.5466 37.1487C60.4519 36.9173 60.3934 36.6457 60.0851 36.9114C59.361 37.5353 58.6484 38.1729 57.9419 38.8168C57.8179 38.9298 57.7278 39.0912 57.6534 39.2454C57.3851 39.8015 57.1407 40.3694 56.8632 40.9207C56.7904 41.0654 56.6306 41.1664 56.5107 41.2875C56.7331 40.5804 56.9555 39.8732 57.1842 39.1258C57.4564 38.4369 57.7242 37.7891 57.9873 37.1394C58.1829 36.6563 58.3723 36.1707 58.624 35.6475C58.9538 35.4933 58.9814 35.312 58.8261 35.0813C58.8261 35.0813 58.8394 35.0362 58.8509 35.0157Z" fill="white"/>
<path d="M45.1849 52.1396C46.0357 51.8318 46.848 51.5371 47.6976 51.2348C47.6143 51.3844 47.5215 51.58 47.3677 51.6912C46.9313 52.0067 46.47 52.2876 45.9384 52.6345C45.9702 52.9518 45.7108 53.1401 45.2907 53.2734C45.0315 53.3557 44.799 53.5956 44.6259 53.8198C44.5864 53.871 44.8416 54.1496 44.9878 54.3448C44.9852 54.3832 44.9535 54.3926 44.8678 54.4008C44.7813 54.4267 44.7465 54.446 44.7117 54.4653C44.6669 54.4817 44.6221 54.498 44.5273 54.49C44.0335 54.1287 43.9266 54.6641 43.6583 54.7818C43.1734 54.9388 42.6885 55.0957 42.1358 55.2747C42.4174 55.5014 42.653 55.6912 42.9085 55.9088C42.8355 55.9452 42.7381 55.9389 42.6509 55.9659C42.5437 55.9991 42.3529 56.0685 42.3565 56.1076C42.4188 56.7789 41.6944 57.0247 41.5304 57.6091C40.9954 57.2852 40.5013 56.9398 39.9862 56.5744C39.9371 56.5285 39.9089 56.5026 39.8842 56.4881C39.8877 56.4995 39.8669 56.5113 39.8669 56.5113C39.7506 56.3118 39.6555 56.0951 39.5125 55.917C39.3387 55.7004 39.2775 55.5804 39.5186 55.3209C39.8477 54.9667 40.1606 54.6691 40.6651 54.6421C40.7286 54.6387 40.8195 54.6025 40.8471 54.5531C41.3265 53.696 42.3053 53.4933 43.0076 52.8802C43.732 52.6192 44.4392 52.3859 45.1849 52.1396Z" fill="white"/>
<path d="M36.9504 29.1521C37.1764 29.8122 37.069 29.8911 36.3525 29.8631C36.0757 29.8524 35.7886 30.1081 35.4817 30.2704C33.8615 29.0523 32.4529 27.6203 31.1297 26C32.2804 26.3081 33.3403 26.6339 34.4197 26.8712C36.0167 27.2222 37.6333 27.4465 39.318 27.3278C39.0738 27.4685 38.7956 27.6182 38.5036 27.7329C38.3381 27.7979 38.1499 27.8054 37.8695 27.858C38.3202 28.4636 38.9971 27.7642 39.3913 28.3413C39.2178 28.4183 39.0579 28.4893 38.825 28.5801C38.6395 28.6058 38.5271 28.6115 38.3797 28.612C38.2987 28.599 38.2526 28.5913 38.1694 28.5664C37.9072 28.5404 37.6821 28.5317 37.4603 28.5259C37.4636 28.5288 37.4578 28.5354 37.4496 28.5248C37.4157 28.4994 37.3917 28.5023 37.3236 28.5326C36.9654 28.5423 36.6529 28.5423 36.2109 28.5423C36.5188 28.7963 36.7346 28.9742 36.9504 29.1521Z" fill="white"/>
<path d="M56.4897 41.3145C56.6306 41.1665 56.7904 41.0655 56.8632 40.9207C57.1407 40.3695 57.3851 39.8016 57.6534 39.2455C57.7278 39.0913 57.8179 38.9299 57.9419 38.8169C58.6485 38.173 59.361 37.5354 60.0851 36.9114C60.3934 36.6458 60.4519 36.9174 60.5222 37.1755C59.8373 38.9612 59.1383 40.7206 58.4133 42.5086C58.2942 42.3918 58.2011 42.2465 58.0833 42.0627C58.0696 42.0673 57.9716 42.0722 57.9182 42.1235C57.4627 42.5609 57.0171 43.0086 56.5639 43.4485C56.4795 43.5305 56.3764 43.5938 56.279 43.6615C56.0258 43.8374 55.7755 44.018 55.5141 44.1809C55.4381 44.2283 55.329 44.2225 55.2059 44.2249C55.6075 43.253 56.0381 42.2972 56.4897 41.3145Z" fill="white"/>
<path d="M36.6406 46.0679C34.7602 45.9469 33.0988 45.2487 31.6475 44.0318C31.8721 43.8883 32.2459 43.8025 32.2543 43.6894C32.2822 43.3151 32.5058 43.3075 32.7657 43.233C33.1083 43.1349 33.4329 42.9738 33.7653 42.8398C33.7653 42.8398 33.7919 42.835 33.8193 42.8773C34.0646 43.0004 34.2826 43.0812 34.5005 43.162C35.2231 43.3044 35.9457 43.4469 36.718 43.6044C36.7677 43.6195 36.8074 43.6249 36.8074 43.6249L36.8458 43.6129C37.0955 43.6246 37.3451 43.6362 37.6405 43.6589C37.8222 43.8192 37.9582 43.9684 38.1181 44.1437C37.7208 44.5531 37.305 44.9481 36.9334 45.3812C36.7858 45.5533 36.7363 45.8097 36.6406 46.0679Z" fill="white"/>
<path d="M36.703 53.1278C36.6677 53.6093 36.4834 53.9133 35.9568 54.0646C35.6856 54.1426 35.23 54.3344 35.2673 54.8553C33.2803 54.3304 31.3964 53.5361 29.7128 52.289C30.1035 52.3123 30.4859 52.3708 30.914 52.4364C30.485 52.0125 30.7267 51.7071 31.1276 51.4174C31.2211 51.3498 31.2385 51.1768 31.291 51.0523C32.9885 51.9874 34.7834 52.669 36.703 53.1278Z" fill="white"/>
<path d="M26.2824 41.5885C26.4439 42.6331 26.5087 43.7048 26.7931 44.7148C27.1006 45.8071 27.613 46.8418 28.0308 47.9642C27.8682 48.046 27.6735 48.1299 27.5642 48.0664C27.4538 48.0023 27.3919 47.7964 27.375 47.6451C27.3572 47.487 27.4183 47.3199 27.4449 47.1568C27.3697 47.1391 27.2945 47.1213 27.2193 47.1036C27.0955 47.6111 26.9717 48.1187 26.8251 48.72C26.6508 48.5603 26.5103 48.4315 26.3958 48.2824C26.4869 48.1369 26.552 48.0117 26.6171 47.8865C26.547 47.8664 26.477 47.8463 26.4069 47.8262C26.3946 47.9851 26.3824 48.1439 26.3285 48.3095C26.2594 48.321 26.2318 48.3259 26.2041 48.3308C25.1362 46.2791 24.6468 44.0737 24.4918 41.7725C24.5933 42.0858 24.6693 42.4128 24.7679 42.8374C24.9452 42.6029 25.0522 42.4614 25.231 42.2251C25.2943 42.5928 25.3397 42.8564 25.3851 43.1199C25.5047 42.9609 25.5284 42.8128 25.5237 42.6657C25.5145 42.3743 25.3793 42.0145 25.5049 41.8134C25.6114 41.643 26.012 41.6564 26.2824 41.5885Z" fill="white"/>
<path d="M26.286 41.5475C26.012 41.6565 25.6114 41.6431 25.5049 41.8134C25.3793 42.0145 25.5145 42.3743 25.5237 42.6658C25.5284 42.8129 25.5047 42.9609 25.3851 43.12C25.3397 42.8564 25.2943 42.5929 25.2309 42.2251C25.0522 42.4614 24.9452 42.6029 24.7678 42.8374C24.6693 42.4129 24.5933 42.0858 24.4975 41.7311C24.4532 41.5911 24.4289 41.4787 24.4121 41.3106C24.4248 41.2264 24.4181 41.201 24.3993 41.1788C24.218 39.8323 23.9385 38.5117 23.3613 37.2306C23.5312 37.3631 23.7075 37.5329 23.9677 37.7834C23.8819 37.2403 23.8067 36.7641 23.7315 36.2879C23.8178 36.2664 23.9042 36.2449 23.9905 36.2234C24.0773 36.4604 24.1641 36.6974 24.2509 36.9344C24.2948 36.9459 24.3388 36.9574 24.3827 36.9689C24.4557 36.5823 24.5288 36.1956 24.6002 35.8173C24.8999 35.8483 24.7673 36.6789 25.302 36.1001C25.5691 37.1318 25.8231 38.1938 26.0699 39.3447C26.0952 39.6311 26.1279 39.8285 26.1605 40.0259C26.1893 40.2097 26.2182 40.3935 26.2305 40.6487C26.2301 40.8728 26.2461 41.0255 26.2621 41.1782C26.2713 41.2876 26.2804 41.397 26.286 41.5475Z" fill="white"/>
<path d="M26.2176 48.3663C26.2317 48.3259 26.2594 48.321 26.3284 48.3094C26.3699 48.3026 26.3698 48.3026 26.3698 48.3026C26.5103 48.4315 26.6508 48.5603 26.825 48.72C26.9717 48.1187 27.0955 47.6111 27.2192 47.1036C27.2945 47.1213 27.3697 47.1391 27.4449 47.1568C27.4183 47.3199 27.3572 47.487 27.3749 47.6451C27.3919 47.7964 27.4537 48.0023 27.5642 48.0664C27.6735 48.1298 27.8682 48.046 28.0414 47.9991C28.7946 49.0719 29.7326 49.9773 30.7856 50.7692C30.9187 50.8693 31.0755 50.938 31.2562 51.0368C31.2385 51.1768 31.2211 51.3498 31.1276 51.4174C30.7267 51.7071 30.485 52.0125 30.914 52.4364C30.4859 52.3708 30.1035 52.3123 29.6912 52.2638C28.1985 51.2663 27.0745 49.9583 26.2176 48.3663Z" fill="white"/>
<path d="M33.7381 42.8134C33.4329 42.9738 33.1083 43.1348 32.7657 43.233C32.5058 43.3075 32.2821 43.3151 32.2543 43.6894C32.2459 43.8024 31.8721 43.8883 31.628 44.0021C30.9878 43.3288 30.3854 42.6401 29.7543 41.931C29.7026 41.8554 29.6796 41.8003 29.6349 41.6984C29.6073 41.6158 29.5884 41.5891 29.5565 41.5717C29.5565 41.5717 29.5586 41.5656 29.5528 41.5328C29.5175 41.4445 29.4879 41.389 29.4583 41.3336C29.346 40.9913 29.2337 40.649 29.1193 40.2676C29.2186 40.1125 29.3199 39.9965 29.4325 39.8675C29.562 39.9413 29.677 40.0068 29.8627 40.1125C29.9616 39.8118 30.0482 39.5487 30.1761 39.1598C30.3132 39.4815 30.4057 39.6987 30.558 40.0561C30.6783 39.7817 30.7478 39.6233 30.8313 39.4337C31.3019 40.9527 32.2684 42.0714 33.7381 42.8134Z" fill="white"/>
<path d="M41.8771 35.1011C41.3037 35.1215 41.6374 35.5134 41.5876 35.768C41.4069 35.5569 41.2726 35.3096 41.0829 35.1171C40.3444 34.3676 39.5883 33.6355 38.8387 32.897C39.0064 32.8777 39.1741 32.8585 39.2872 32.8455C39.2697 32.5713 39.1442 32.1819 39.2565 32.093C39.7465 31.7051 39.776 32.4997 40.2102 32.5213C40.2722 32.2478 40.3346 31.972 40.4203 31.6602C41.1061 32.16 41.7924 32.6696 42.4223 33.2414C42.7843 33.5701 43.0548 33.9995 43.3827 34.4169C43.3143 34.6566 43.2505 34.8755 43.1381 35.0656C43.0502 35.2145 42.9006 35.3264 42.7811 35.4573C42.6872 35.56 42.5978 35.6668 42.506 35.7714C42.4047 35.8868 42.3028 36.0017 42.2012 36.1169C42.0836 36.006 41.9058 35.9143 41.863 35.7797C41.8042 35.5949 41.8477 35.3776 41.8966 35.1456C42.1004 35.1603 42.255 35.2037 42.4095 35.247C42.4369 35.207 42.4643 35.167 42.4917 35.127C42.4192 35.0396 42.3263 34.8688 42.2779 34.8805C42.1349 34.9153 42.0094 35.0223 41.8771 35.1011Z" fill="white"/>
<path d="M37.6484 40.3737C37.7372 40.3743 37.7795 40.3877 37.854 40.4102C37.8073 40.8735 37.4861 41.0105 37.0775 41.0846C36.573 41.1762 36.0385 41.2499 35.803 41.862C33.8719 41.3105 32.4486 39.2682 32.8642 37.651C33.8242 39.6582 35.3887 40.5907 37.6484 40.3737Z" fill="white"/>
<path d="M65.391 29.9562C65.4562 29.7459 65.4944 29.4557 65.6596 29.3047C66.2502 28.765 66.7827 28.0986 67.7418 28.105C66.9977 28.7196 66.2099 29.3299 65.391 29.9562Z" fill="white"/>
<path d="M16.5932 42.0683C17.0588 42.0302 17.3169 42.3322 17.509 42.7589C17.2087 42.5635 16.9103 42.3313 16.5932 42.0683Z" fill="white"/>
<path d="M43.6968 54.7821C43.9266 54.6641 44.0335 54.1287 44.4924 54.4983C44.2502 54.6149 43.9928 54.6986 43.6968 54.7821Z" fill="white"/>
<path d="M67.8165 28.1048C67.6212 27.9691 67.4513 27.8253 67.2582 27.6605C67.4209 27.6509 67.619 27.6258 67.7901 27.6824C68.0372 27.7641 68.0908 27.9251 67.8165 28.1048Z" fill="white"/>
<path d="M18.8093 41.4618C18.5701 41.4909 18.3252 41.4765 18.3142 41.0912C18.4737 41.1776 18.6344 41.3042 18.8093 41.4618Z" fill="white"/>
<path d="M37.5382 53.3409C37.343 53.3106 37.1125 53.2677 36.8669 53.1943C37.0689 53.2186 37.2859 53.2735 37.5382 53.3409Z" fill="white"/>
<path d="M66.5514 27.5719C66.241 27.586 65.8839 27.5907 65.4894 27.5768C65.803 27.5597 66.1538 27.5611 66.5514 27.5719Z" fill="white"/>
<path d="M34.4733 43.134C34.2825 43.0812 34.0646 43.0005 33.8286 42.8873C34.0223 42.9385 34.2342 43.0222 34.4733 43.134Z" fill="white"/>
<path d="M30.7886 37.794C30.7928 37.7005 30.8163 37.5758 30.8613 37.4296C30.8579 37.5264 30.8328 37.6446 30.7886 37.794Z" fill="white"/>
<path d="M26.1667 39.9827C26.1278 39.8285 26.0952 39.6311 26.067 39.3882C26.1053 39.5417 26.1391 39.7406 26.1667 39.9827Z" fill="white"/>
<path d="M26.2692 41.135C26.2461 41.0255 26.23 40.8728 26.2279 40.6887C26.2533 40.8021 26.2648 40.947 26.2692 41.135Z" fill="white"/>
<path d="M38.2231 32.5086C38.2788 32.5251 38.3461 32.5711 38.4244 32.6463C38.3685 32.6297 38.3017 32.5839 38.2231 32.5086Z" fill="white"/>
<path d="M30.7399 38.619C30.7226 38.5721 30.7155 38.4889 30.7206 38.3827C30.7385 38.4341 30.7443 38.5085 30.7399 38.619Z" fill="white"/>
<path d="M35.9045 41.9408C35.9402 41.9389 35.9993 41.9595 36.086 41.9949C36.0517 41.9942 35.9898 41.9787 35.9045 41.9408Z" fill="white"/>
<path d="M29.4582 41.3662C29.4879 41.3891 29.5175 41.4445 29.5499 41.5317C29.5211 41.5085 29.4896 41.4537 29.4582 41.3662Z" fill="white"/>
<path d="M44.7429 54.4619C44.7464 54.446 44.7812 54.4266 44.8435 54.3952C44.8387 54.4082 44.8064 54.4334 44.7429 54.4619Z" fill="white"/>
<path d="M36.8209 43.6059C36.8458 43.6129 36.8074 43.6249 36.8074 43.6249C36.8074 43.6249 36.7677 43.6195 36.7561 43.6123C36.7446 43.6051 36.796 43.5988 36.8209 43.6059Z" fill="white"/>
<path d="M29.5596 41.596C29.5884 41.5891 29.6073 41.6158 29.6139 41.6768C29.5889 41.6801 29.5716 41.6529 29.5596 41.596Z" fill="white"/>
<path d="M24.3952 41.2045C24.4181 41.201 24.4248 41.2263 24.4137 41.2672C24.4079 41.2795 24.391 41.2302 24.3952 41.2045Z" fill="white"/>
<path d="M30.7716 39.1269C30.7646 39.127 30.7602 39.1166 30.7617 39.114C30.7632 39.1115 30.7786 39.1267 30.7716 39.1269Z" fill="white"/>
<path d="M30.7508 38.1112C30.7293 38.1106 30.7275 38.0855 30.7446 38.0486C30.7519 38.0376 30.7588 38.0874 30.7508 38.1112Z" fill="white"/>
<path d="M63.7435 27.5324C63.7705 27.537 63.7315 27.5531 63.7315 27.5531C63.7315 27.5531 63.6899 27.5519 63.6767 27.5465C63.6811 27.5368 63.6988 27.5324 63.7435 27.5324Z" fill="white"/>
<path d="M37.6151 29.5616C37.6457 29.5642 37.6985 29.5829 37.7684 29.6245C37.7361 29.6241 37.6866 29.6008 37.6151 29.5616Z" fill="white"/>
<path d="M37.8069 29.659C37.7965 29.6525 37.8455 29.6557 37.8665 29.6684C37.8624 29.6825 37.839 29.6773 37.8069 29.659Z" fill="white"/>
<path d="M37.3904 29.4292C37.381 29.421 37.4285 29.434 37.4479 29.449C37.4419 29.4621 37.4194 29.4533 37.3904 29.4292Z" fill="white"/>
<path d="M58.8045 35.1115C58.9813 35.312 58.9537 35.4933 58.6473 35.6216C58.6683 35.47 58.7256 35.3059 58.8045 35.1115Z" fill="white"/>
<path d="M39.9862 56.5744C39.9721 56.5741 39.937 56.5539 39.8914 56.5052C39.9089 56.5026 39.9371 56.5285 39.9862 56.5744Z" fill="white"/>
<path d="M38.1694 28.5664C37.98 28.5786 37.7537 28.5736 37.4921 28.5458C37.6821 28.5317 37.9072 28.5404 38.1694 28.5664Z" fill="white"/>
<path d="M37.4495 28.5248C37.4577 28.5353 37.411 28.5464 37.3901 28.5346C37.3916 28.5023 37.4157 28.4994 37.4495 28.5248Z" fill="white"/>
<path d="M26.3699 48.3027C26.3823 48.1439 26.3946 47.9851 26.4069 47.8262C26.4769 47.8463 26.547 47.8664 26.617 47.8865C26.5519 48.0117 26.4869 48.1369 26.3958 48.2824C26.3697 48.3026 26.3699 48.3026 26.3699 48.3027Z" fill="white"/>
<path d="M41.877 35.101C42.0094 35.0224 42.1349 34.9154 42.2779 34.8806C42.3263 34.8688 42.4192 35.0396 42.4917 35.127C42.4643 35.167 42.4369 35.207 42.4095 35.2471C42.255 35.2037 42.1004 35.1603 41.9112 35.1087C41.8765 35.1004 41.8768 35.1008 41.877 35.101Z" fill="white"/>
</svg>
