<svg width="80" height="80" viewBox="0 0 80 80" fill="none" xmlns="http://www.w3.org/2000/svg">
<rect width="80" height="80" rx="40" fill="#2081E2"/>
<path d="M19.975 40.6958L20.15 40.4209L30.7001 23.9167C30.8542 23.675 31.2167 23.7 31.3333 23.9625C33.0959 27.9126 34.6167 32.825 33.9042 35.8834C33.6 37.1417 32.7667 38.8459 31.8292 40.4209C31.7083 40.65 31.5751 40.8751 31.4334 41.0917C31.3667 41.1917 31.2542 41.2501 31.1334 41.2501H20.2833C19.9917 41.2501 19.8209 40.9334 19.975 40.6958Z" fill="white"/>
<path d="M67 43.7625V46.375C67 46.525 66.9083 46.6584 66.7751 46.7167C65.9584 47.0667 63.1625 48.3501 62 49.9667C59.0333 54.0958 56.7667 60 51.7 60H30.5625C23.0708 60 17 53.9084 17 46.3917V46.15C17 45.95 17.1625 45.7875 17.3626 45.7875H29.1458C29.3791 45.7875 29.55 46.0042 29.5292 46.2333C29.4458 47 29.5875 47.7834 29.95 48.4959C30.6501 49.9167 32.1 50.8042 33.6667 50.8042H39.5V46.25H33.7333C33.4375 46.25 33.2625 45.9084 33.4334 45.6667C33.4959 45.5709 33.5667 45.4708 33.6417 45.3583C34.1875 44.5834 34.9667 43.3792 35.7417 42.0083C36.2708 41.0834 36.7833 40.0958 37.1958 39.1042C37.2792 38.925 37.3459 38.7417 37.4125 38.5625C37.5251 38.2459 37.6417 37.95 37.725 37.6542C37.8083 37.4042 37.875 37.1417 37.9417 36.8958C38.1375 36.0542 38.2209 35.1625 38.2209 34.2375C38.2209 33.875 38.2042 33.4959 38.1709 33.1333C38.1542 32.7375 38.1042 32.3417 38.0542 31.9458C38.0208 31.5958 37.9584 31.25 37.8917 30.8875C37.8083 30.3583 37.6917 29.8334 37.5583 29.3042L37.5125 29.1042C37.4125 28.7417 37.3292 28.3958 37.2125 28.0334C36.8834 26.8958 36.5041 25.7875 36.1042 24.75C35.9584 24.3375 35.7916 23.9417 35.625 23.5459C35.3791 22.95 35.1291 22.4083 34.9001 21.8958C34.7833 21.6625 34.6833 21.45 34.5834 21.2333C34.4709 20.9875 34.3542 20.7417 34.2376 20.5083C34.1542 20.3291 34.0583 20.1625 33.9917 19.9959L33.2792 18.6792C33.1792 18.5 33.3459 18.2875 33.5416 18.3417L38 19.55H38.0125C38.0208 19.55 38.0251 19.5542 38.0292 19.5542L38.6167 19.7167L39.2625 19.9L39.5 19.9667V17.3167C39.5 16.0375 40.5251 15 41.7917 15C42.425 15 43 15.2583 43.4125 15.6792C43.825 16.1 44.0834 16.675 44.0834 17.3167V21.25L44.5583 21.3833C44.5959 21.3958 44.6334 21.4125 44.6667 21.4375C44.7833 21.525 44.95 21.6542 45.1625 21.8125C45.3292 21.9458 45.5084 22.1083 45.725 22.275C46.1542 22.6209 46.6666 23.0667 47.2292 23.5791C47.3791 23.7084 47.5251 23.8417 47.6583 23.975C48.3834 24.65 49.1958 25.4417 49.9709 26.3167C50.1876 26.5625 50.4001 26.8125 50.6167 27.075C50.8334 27.3417 51.0625 27.6042 51.2625 27.8667C51.5251 28.2167 51.8083 28.5791 52.0542 28.9584C52.1709 29.1375 52.3042 29.3208 52.4167 29.5C52.7333 29.9792 53.0125 30.475 53.2792 30.9708C53.3917 31.2 53.5084 31.45 53.6083 31.6958C53.9042 32.3583 54.1375 33.0334 54.2875 33.7084C54.3334 33.8542 54.3667 34.0125 54.3834 34.1542V34.1875C54.4333 34.3875 54.45 34.6 54.4667 34.8167C54.5333 35.5083 54.5 36.2 54.35 36.8958C54.2875 37.1917 54.2042 37.4708 54.1042 37.7667C54.0041 38.05 53.9042 38.3458 53.7751 38.625C53.5251 39.2041 53.2292 39.7834 52.8791 40.325C52.7667 40.525 52.6334 40.7375 52.5 40.9375C52.3542 41.15 52.2042 41.35 52.0708 41.5459C51.8875 41.7959 51.6917 42.0583 51.4917 42.2917C51.3126 42.5375 51.1291 42.7834 50.9292 43C50.6501 43.3291 50.3834 43.6417 50.1042 43.9417C49.9375 44.1375 49.7584 44.3375 49.575 44.5167C49.3958 44.7167 49.2125 44.8958 49.0459 45.0625C48.7667 45.3417 48.5334 45.5583 48.3375 45.7375L47.8792 46.1584C47.8126 46.2167 47.725 46.25 47.6334 46.25H44.0834V50.8042H48.55C49.55 50.8042 50.5 50.45 51.2667 49.8C51.5292 49.5709 52.675 48.5791 54.0292 47.0834C54.075 47.0334 54.1334 46.9959 54.2 46.9792L66.5375 43.4125C66.7667 43.3458 67 43.5208 67 43.7625Z" fill="white"/>
</svg>
