<svg width="64" height="33" viewBox="0 0 64 33" fill="none" xmlns="http://www.w3.org/2000/svg">
<path d="M3.0029 15.0652C2.17778 15.0652 1.46763 14.7653 0.872464 14.1655C0.290821 13.5517 0 12.8194 0 11.9685V3.09674C0 2.24583 0.290821 1.52047 0.872464 0.920652C1.46763 0.306884 2.17778 0 3.0029 0H11.6058C12.4174 0 13.1208 0.306884 13.7159 0.920652C14.3111 1.52047 14.6087 2.24583 14.6087 3.09674V11.9685C14.6087 12.8194 14.3111 13.5517 13.7159 14.1655C13.1208 14.7653 12.4174 15.0652 11.6058 15.0652H3.0029ZM3.81449 11.8011H10.7536C11.2 11.8011 11.4232 11.8011 11.4232 11.8011C11.4232 11.8011 11.4232 11.5709 11.4232 11.1106V3.95462C11.4232 3.49429 11.4232 3.26413 11.4232 3.26413C11.4232 3.26413 11.2 3.26413 10.7536 3.26413H3.81449C3.36812 3.26413 3.14493 3.26413 3.14493 3.26413C3.14493 3.26413 3.14493 3.49429 3.14493 3.95462V11.1106C3.14493 11.5709 3.14493 11.8011 3.14493 11.8011C3.14493 11.8011 3.36812 11.8011 3.81449 11.8011Z" fill="black"/>
<path d="M16.8431 15.0652V0.0209236H28.4286C29.2537 0.0209236 29.9639 0.327808 30.5591 0.941576C31.1542 1.55534 31.4518 2.28071 31.4518 3.11766V7.00951C31.4518 7.84647 31.1542 8.57183 30.5591 9.1856C29.9639 9.79937 29.2537 10.1063 28.4286 10.1063L19.988 10.1272V15.0652H16.8431ZM20.6576 6.84212H27.5967C28.0431 6.84212 28.2663 6.84212 28.2663 6.84212C28.2663 6.84212 28.2663 6.61196 28.2663 6.15163V3.95462C28.2663 3.49429 28.2663 3.26413 28.2663 3.26413C28.2663 3.26413 28.0431 3.26413 27.5967 3.26413H20.6576C20.2112 3.26413 19.988 3.26413 19.988 3.26413C19.988 3.26413 19.988 3.49429 19.988 3.95462V6.15163C19.988 6.61196 19.988 6.84212 19.988 6.84212C19.988 6.84212 20.2112 6.84212 20.6576 6.84212Z" fill="black"/>
<path d="M32.9333 15.0652V0H46.426V3.26413H36.1188V5.90054H44.4173V9.16467H36.1188V11.8011H46.426V15.0652H32.9333Z" fill="black"/>
<path d="M48.4271 15.0652V0H51.6735L59.8503 10.0435V0H63.0358V15.0652H59.7894L51.572 4.97989V15.0652H48.4271Z" fill="black"/>
<path d="M0.101449 33V17.9348H11.1391C11.9507 17.9348 12.6541 18.2417 13.2493 18.8554C13.8444 19.4553 14.142 20.1806 14.142 21.0315V23.8563C14.142 24.0376 14.1285 24.212 14.1014 24.3793C14.0879 24.5328 14.0541 24.6793 14 24.8187C14.2029 25.0838 14.372 25.3907 14.5072 25.7394C14.6425 26.0881 14.7101 26.4369 14.7101 26.7856V29.9033C14.7101 30.7542 14.4126 31.4865 13.8174 32.1003C13.2222 32.7001 12.5121 33 11.687 33H0.101449ZM3.91594 29.7359H10.8551C11.3014 29.7359 11.5246 29.7359 11.5246 29.7359C11.5246 29.7359 11.5246 29.5057 11.5246 29.0454V27.6644C11.5246 27.2041 11.5246 26.9739 11.5246 26.9739C11.5246 26.9739 11.3014 26.9739 10.8551 26.9739H3.91594C3.46957 26.9739 3.24638 26.9739 3.24638 26.9739C3.24638 26.9739 3.24638 27.2041 3.24638 27.6644V29.0454C3.24638 29.5057 3.24638 29.7359 3.24638 29.7359C3.24638 29.7359 3.46957 29.7359 3.91594 29.7359ZM3.91594 23.7098H10.287C10.7333 23.7098 10.9565 23.7098 10.9565 23.7098C10.9565 23.7098 10.9565 23.4796 10.9565 23.0193V21.8894C10.9565 21.4291 10.9565 21.1989 10.9565 21.1989C10.9565 21.1989 10.7333 21.1989 10.287 21.1989H3.91594C3.46957 21.1989 3.24638 21.1989 3.24638 21.1989C3.24638 21.1989 3.24638 21.4291 3.24638 21.8894V23.0193C3.24638 23.4796 3.24638 23.7098 3.24638 23.7098C3.24638 23.7098 3.46957 23.7098 3.91594 23.7098Z" fill="black"/>
<path d="M16.9427 33V17.9139H20.0876V29.7359H31.5514V33H16.9427Z" fill="black"/>
<path d="M35.6965 33C34.8714 33 34.1612 32.7001 33.5661 32.1003C32.9844 31.4865 32.6936 30.7542 32.6936 29.9033V21.0315C32.6936 20.1806 32.9844 19.4553 33.5661 18.8554C34.1612 18.2417 34.8714 17.9348 35.6965 17.9348H44.2994C45.111 17.9348 45.8144 18.2417 46.4096 18.8554C47.0047 19.4553 47.3023 20.1806 47.3023 21.0315V29.9033C47.3023 30.7542 47.0047 31.4865 46.4096 32.1003C45.8144 32.7001 45.111 33 44.2994 33H35.6965ZM36.5081 29.7359H43.4472C43.8936 29.7359 44.1168 29.7359 44.1168 29.7359C44.1168 29.7359 44.1168 29.5057 44.1168 29.0454V21.8894C44.1168 21.4291 44.1168 21.1989 44.1168 21.1989C44.1168 21.1989 43.8936 21.1989 43.4472 21.1989H36.5081C36.0617 21.1989 35.8385 21.1989 35.8385 21.1989C35.8385 21.1989 35.8385 21.4291 35.8385 21.8894V29.0454C35.8385 29.5057 35.8385 29.7359 35.8385 29.7359C35.8385 29.7359 36.0617 29.7359 36.5081 29.7359Z" fill="black"/>
<path d="M48.6998 33V31.891L53.9143 25.4674L48.6998 19.0437V17.9348H51.9664L56.0244 22.8937L60.0418 17.9348H63.3085V19.0437L58.0737 25.4674L63.3085 31.8701V33H60.0418L55.9838 28.062L51.9664 33H48.6998Z" fill="black"/>
</svg>
