<svg width="80" height="80" viewBox="0 0 80 80" fill="none" xmlns="http://www.w3.org/2000/svg">
<rect width="80" height="80" rx="40" fill="black"/>
<path d="M46.8707 28.1548C51.1636 26.6028 55.3167 26.5037 59.3349 28.543C64.1464 30.9848 66.6312 36.389 65.8621 42.6425C59.9748 42.6425 54.0665 42.6425 48.0958 42.6425C48.1604 44.2805 49.1269 45.0831 50.2952 45.6981C53.1968 47.2257 57.0546 46.9892 61.0697 45.0035C62.0695 46.9342 63.0721 48.8701 64.2562 51.1568C62.3031 51.814 60.485 52.5935 58.5879 53.0289C54.7558 53.9084 50.8841 53.9244 47.1958 52.4073C42.0583 50.2942 39.5582 46.1747 39.2981 40.7914C39.0213 35.0612 41.522 30.7819 46.8707 28.1548ZM50.3496 37.4512C52.8518 37.4512 55.354 37.4512 57.8805 37.4512C57.5163 34.6108 55.6761 33.3578 52.3656 33.4957C50.0524 33.5921 48.3238 35.1945 48.1944 37.451C48.8098 37.451 49.4203 37.451 50.3496 37.4512Z" fill="white"/>
<path d="M35.8573 30.1547C35.8573 33.1418 35.8573 35.9647 35.8573 38.8088C34.0376 39.4301 32.367 39.4776 30.6176 38.6733C28.6849 37.7846 28.4691 35.9921 28.124 34.2814C26.0605 34.686 25.345 35.7867 25.3347 38.4711C25.3179 42.8829 25.3293 47.2947 25.3289 51.7065C25.3288 52.2612 25.3289 52.8158 25.3289 53.4559C22.193 53.4559 19.1606 53.4559 16 53.4559C16 44.869 16 36.2563 16 27.5146C18.765 27.5146 21.5107 27.5146 24.3426 27.5146C24.3878 28.3557 24.4356 29.2435 24.4997 30.4351C26.7537 27.7702 29.5108 26.8602 32.6848 27.0516C32.8539 27.0618 33.0249 27.0439 33.1936 27.057C35.6575 27.2479 35.8621 27.4742 35.8573 30.1547Z" fill="white"/>
</svg>
