<svg width="80" height="80" viewBox="0 0 80 80" fill="none" xmlns="http://www.w3.org/2000/svg">
<rect width="80" height="80" rx="40" fill="#2F6DF2"/>
<path d="M59.8295 34.8249C59.8185 34.8264 59.8074 34.8236 59.7982 34.8172C59.7893 34.8109 59.7829 34.8014 59.7804 34.7906C58.6809 30.458 56.1683 26.6158 52.6402 23.8713C49.1123 21.1268 44.77 19.6367 40.3 19.6367C35.8303 19.6367 31.4879 21.1268 27.9598 23.8713C24.4318 26.6158 21.9193 30.458 20.8197 34.7906C20.8173 34.8014 20.811 34.8109 20.8019 34.8172C20.7928 34.8236 20.7816 34.8264 20.7707 34.8249C19.4422 34.8249 15.3 34.9965 15.3 38.5161C15.3 42.7122 15.7903 46.3592 18.2412 48.4769C19.3001 49.3837 21.0893 49.6043 22.7854 49.5651C23.846 49.5311 24.9027 49.4197 25.9471 49.2318C25.9553 49.2311 25.9632 49.2282 25.9699 49.2233C25.9765 49.2184 25.9817 49.2118 25.9847 49.2042C25.9878 49.1965 25.9887 49.1881 25.9872 49.18C25.9857 49.1718 25.982 49.1643 25.9765 49.1582C24.1257 46.3612 23.1402 43.0808 23.1432 39.7269C23.1432 39.6779 23.1432 39.6239 23.1432 39.5749C23.1432 35.0246 24.9508 30.6606 28.1683 27.4431C31.3858 24.2256 35.7499 22.418 40.3 22.418C44.8504 22.418 49.2143 24.2256 52.4317 27.4431C55.6494 30.6606 57.4569 35.0246 57.4569 39.5749C57.4569 39.6239 57.4569 39.6779 57.4569 39.7269C57.4598 43.0808 56.4744 46.3612 54.6236 49.1582C54.618 49.1643 54.6144 49.1718 54.6129 49.18C54.6115 49.1881 54.6123 49.1965 54.6154 49.2042C54.6185 49.2118 54.6236 49.2184 54.6303 49.2233C54.637 49.2282 54.6448 49.2311 54.653 49.2318C55.6974 49.4197 56.7541 49.5311 57.8147 49.5651C59.5108 49.6043 61.3 49.3837 62.3589 48.4769C64.8098 46.3837 65.3 42.7122 65.3 38.5161C65.3 34.9965 61.1579 34.8249 59.8295 34.8249Z" fill="white"/>
<path d="M40.3033 53.9428L27.2641 49.5947C27.2533 49.5907 27.2413 49.5905 27.2304 49.5943C27.2194 49.598 27.2101 49.6057 27.2043 49.6157C27.1984 49.6256 27.1963 49.6374 27.1982 49.6488C27.2002 49.6603 27.2061 49.6706 27.215 49.6781L40.269 62.732C40.2781 62.741 40.2904 62.7461 40.3033 62.7461C40.316 62.7461 40.3284 62.741 40.3376 62.732L53.3915 49.6781C53.4003 49.6706 53.4064 49.6603 53.4083 49.6488C53.4103 49.6374 53.408 49.6256 53.4023 49.6157C53.3964 49.6057 53.3871 49.598 53.3762 49.5943C53.3652 49.5905 53.3533 49.5907 53.3425 49.5947L40.3033 53.9428Z" fill="white"/>
<path d="M51.9029 40.6584L55.0009 39.727C55.0118 39.7257 55.0218 39.7205 55.029 39.7125C55.0362 39.7043 55.0403 39.6937 55.0401 39.6829C55.0316 38.536 54.8885 37.3944 54.6136 36.281C54.611 36.2708 54.6053 36.2617 54.5975 36.2547C54.5896 36.2478 54.58 36.2432 54.5695 36.2417L51.4176 35.9574C51.4073 35.9574 51.3973 35.9542 51.389 35.9481C51.3806 35.9421 51.3744 35.9336 51.3712 35.9238C51.3679 35.9141 51.3677 35.9035 51.3708 35.8937C51.3739 35.8839 51.38 35.8752 51.3881 35.8692L53.7313 33.8201C53.736 33.811 53.7385 33.8009 53.7385 33.7907C53.7385 33.7805 53.736 33.7704 53.7313 33.7613C53.2538 32.7027 52.6532 31.704 51.9421 30.7858C51.9344 30.7798 51.9249 30.7766 51.9151 30.7766C51.9055 30.7766 51.896 30.7798 51.8881 30.7858L48.9911 31.7662C48.9819 31.7691 48.9721 31.7693 48.9628 31.7667C48.9535 31.764 48.9452 31.7587 48.939 31.7514C48.9326 31.7441 48.9287 31.7351 48.9275 31.7255C48.9264 31.7159 48.928 31.7062 48.9323 31.6975L50.1921 28.9426C50.1978 28.9339 50.2009 28.9237 50.2009 28.9132C50.2009 28.9028 50.1978 28.8926 50.1921 28.8838C49.3225 28.0967 48.3613 27.417 47.3293 26.8593C47.3216 26.8533 47.3122 26.8501 47.3024 26.8501C47.2927 26.8501 47.2832 26.8533 47.2754 26.8593L45.0842 28.8838C45.0774 28.8905 45.0687 28.8951 45.0594 28.8969C45.0499 28.8988 45.0401 28.8978 45.0313 28.8941C45.0225 28.8905 45.0148 28.8843 45.0094 28.8764C45.004 28.8684 45.0011 28.8591 45.0009 28.8495L45.045 25.9083C45.0455 25.8975 45.0424 25.8868 45.0362 25.878C45.03 25.8691 45.0212 25.8625 45.0107 25.8593C43.8991 25.4855 42.7475 25.2437 41.5793 25.1387C41.5685 25.1382 41.5579 25.1413 41.5491 25.1475C41.5401 25.1537 41.5336 25.1627 41.5303 25.173L40.3636 27.8887C40.3597 27.897 40.3533 27.904 40.3457 27.9089C40.3378 27.9138 40.3288 27.9164 40.3195 27.9164C40.3104 27.9164 40.3014 27.9138 40.2935 27.9089C40.2857 27.904 40.2795 27.897 40.2754 27.8887L39.1136 25.173C39.1087 25.1632 39.1009 25.1552 39.0912 25.1499C39.0816 25.1447 39.0707 25.1425 39.0597 25.1436C37.8911 25.2477 36.7391 25.4913 35.6283 25.8691C35.6189 25.8735 35.6105 25.8803 35.6045 25.8889C35.5984 25.8976 35.5948 25.9076 35.594 25.9181L35.6332 28.8838C35.6349 28.8935 35.6332 28.9035 35.6287 28.9122C35.6239 28.9208 35.6166 28.9277 35.6074 28.9316C35.5984 28.9356 35.5883 28.9364 35.5788 28.9339C35.5693 28.9315 35.5609 28.9259 35.5548 28.9181L33.3342 26.8642C33.3256 26.8585 33.3153 26.8555 33.3048 26.8555C33.2943 26.8555 33.2842 26.8585 33.2754 26.8642C32.245 27.4218 31.2854 28.1015 30.4175 28.8887C30.4118 28.8975 30.4089 28.9077 30.4089 28.9181C30.4089 28.9286 30.4118 28.9388 30.4175 28.9475L31.6872 31.6926C31.6901 31.7017 31.6904 31.7114 31.6883 31.7207C31.6862 31.7299 31.6818 31.7385 31.6752 31.7455C31.6689 31.7524 31.6605 31.7576 31.6515 31.7603C31.6424 31.7631 31.6327 31.7634 31.6234 31.7613L28.7313 30.7809C28.7226 30.7752 28.7123 30.7722 28.7019 30.7722C28.6914 30.7722 28.6813 30.7752 28.6724 30.7809C27.9664 31.7015 27.3708 32.7018 26.898 33.7613C26.8923 33.77 26.8893 33.7802 26.8893 33.7907C26.8893 33.8011 26.8923 33.8114 26.898 33.8201L29.246 35.8741C29.2525 35.8806 29.2571 35.8888 29.2591 35.8978C29.2612 35.9068 29.2607 35.9163 29.2576 35.9249C29.2545 35.9336 29.2489 35.9413 29.2417 35.947C29.2345 35.9529 29.2259 35.9563 29.2166 35.9574L26.0794 36.2516C26.0694 36.252 26.0598 36.2556 26.0519 36.2617C26.044 36.2679 26.0382 36.2762 26.0352 36.2859C25.7539 37.3984 25.6042 38.5403 25.5892 39.6878C25.5887 39.6986 25.5918 39.7092 25.598 39.7181C25.6042 39.727 25.6132 39.7336 25.6235 39.7368L28.7264 40.7074C28.7347 40.7114 28.7417 40.7176 28.7466 40.7254C28.7515 40.7333 28.7541 40.7422 28.7541 40.7516C28.7541 40.7607 28.7515 40.7697 28.7466 40.7775C28.7417 40.7854 28.7347 40.7916 28.7264 40.7957L25.8637 42.3937C25.8573 42.411 25.8573 42.4301 25.8637 42.4476C26.0756 43.5886 26.4211 44.7009 26.8931 45.7614C27.0499 46.1094 27.2215 46.4476 27.3832 46.781C27.3929 46.7839 27.4032 46.7839 27.4126 46.781L40.295 51.08L53.2068 46.7761C53.2132 46.7741 53.219 46.771 53.2241 46.7667C53.2292 46.7625 53.2332 46.7573 53.2362 46.7516C53.9666 45.3882 54.481 43.9197 54.7607 42.3986C54.7632 42.3882 54.762 42.3772 54.7576 42.3674C54.7532 42.3578 54.7457 42.3498 54.7362 42.3447L51.8783 40.7466C51.8703 40.7406 51.8645 40.7324 51.8612 40.7231C51.8579 40.7138 51.8576 40.7035 51.8604 40.694C51.863 40.6844 51.8684 40.6759 51.8761 40.6695C51.8837 40.6632 51.8931 40.6592 51.9029 40.6584Z" fill="white"/>
</svg>
