<svg width="80" height="80" viewBox="0 0 80 80" fill="none" xmlns="http://www.w3.org/2000/svg">
<rect width="80" height="80" rx="40" fill="black"/>
<path fill-rule="evenodd" clip-rule="evenodd" d="M36.3637 9.00003H40.9091V16.7273H46.8182V19H51.3637V37.1818H45.9091V39L53.7887 39V47.3906H48.0374V45.6977H47.1116V44.9091H40V45.6977H39.5661L39.5455 47.9995H38.4967V47.1819H31.6871V45.6977H30.8043V44.7886H26.9493V45.6977H26.1888V46.6068H25.3436V39.0001L32.2727 39V37.1818H28.6364V19H33.1818V16.7273H36.3637V9.00003ZM51.1776 26.2006C51.1792 28.4782 51.1808 30.7559 51.1415 33.0715C51.0531 33.0749 50.9742 33.0772 50.9039 33.0793C50.5959 33.0884 50.4505 33.0926 50.3826 33.1673C50.3218 33.2342 50.323 33.3574 50.3254 33.5908C50.3262 33.6716 50.3271 33.7656 50.3257 33.8751L50.3257 33.8785C50.3254 33.9059 50.3251 33.9333 50.2868 33.9636C47.3934 33.9671 44.5405 33.9689 41.6877 33.9676C38.2471 33.966 34.8066 33.9617 31.3638 33.9189C31.363 31.0385 31.3645 28.1979 31.4059 25.3534C32.2057 25.349 32.9655 25.3484 33.7254 25.348C39.2593 25.3455 44.7933 25.343 50.3175 25.3438C50.3096 25.3463 50.3112 25.3596 50.314 25.3843L50.3162 25.4048C50.3335 26.2266 50.3335 26.2266 51.1352 26.2037C51.1449 26.2035 51.1545 26.2026 51.1641 26.2017C51.1686 26.2013 51.1731 26.2009 51.1776 26.2006ZM33.9467 29.527V30.4859H36.5099V27.9606H33.9467V29.527ZM47.5221 27.934H46.0492V30.4966H48.5734V27.934H47.5221ZM50 43H48V45H50V43Z" fill="white"/>
<path fill-rule="evenodd" clip-rule="evenodd" d="M15 45.3636V58.0909H65V46.989H64.0909V46.2727H63.1818V45.3636H54.6651V46.9374H54.0288V47.7653H47.7273V46.2727H46.8182V45.3636H40.4545V46.2727H40V48.5455H38.1818V47.6364H31.3636V46.2727H30.4545V45.3636H27.2727V46.2727H26.3636V47.6364H25V46.7273H24.5455V45.3636H15ZM16.8242 51.9713V51.9713V51.9713V51.9713V51.9713V51.9713V51.9713V51.9713V51.9713C16.8237 52.1162 16.8233 52.261 16.8244 52.4162C16.8307 53.8573 16.8307 55.2587 16.8307 56.6566H18.5738V53.2646H20.3037V56.6506H21.9856V53.2331H21.1631V52.3671H21.9934C21.9976 52.1065 22.0018 51.8459 22.012 51.5466C22.0135 51.2959 22.0108 51.0726 22.0076 50.807L22.0076 50.8067L22.0076 50.8067L22.0058 50.6507C22.006 49.745 22.006 48.9179 22.006 48.0909H16.8182C16.8182 48.9631 16.8182 49.8078 16.8244 50.6909C16.8255 50.8431 16.8249 50.9853 16.8243 51.1279V51.1279V51.1279V51.1279V51.1279V51.1279V51.1279V51.1279V51.1279C16.8238 51.2643 16.8233 51.4009 16.8241 51.5469C16.8251 51.6946 16.8246 51.833 16.8242 51.9712V51.9712V51.9712V51.9712V51.9713V51.9713V51.9713V51.9713V51.9713ZM18.5575 51.4868V50.7305C18.57 50.3821 18.57 50.1116 18.57 49.8142H20.278V50.5738C20.2662 50.9226 20.2662 51.1926 20.2662 51.4868H18.5575ZM40.954 50.6526V48.0914H42.6938C42.6938 48.9185 42.6938 49.7453 42.6936 50.6508L42.6954 50.806C42.6986 51.072 42.7013 51.2956 42.6998 51.5468C42.6988 51.6947 42.6993 51.8332 42.6997 51.9716V51.9717V51.9718V51.972V51.9721V51.9722V51.9723V51.9724C42.7002 52.1171 42.7007 52.2616 42.6995 52.4164C42.6933 53.2821 42.6933 54.108 42.6933 54.9355H43.5662V54.0827H44.4019C44.4019 53.4893 44.4019 52.933 44.4079 52.3375C44.4088 52.1902 44.4084 52.0521 44.4079 51.9144V51.9141V51.9139V51.9136V51.9134V51.9131V51.9128V51.9125C44.4075 51.7679 44.407 51.6236 44.4081 51.4693C44.4102 51.1714 44.4061 50.912 44.4019 50.6526V48.0914H46.1418C46.1418 48.9185 46.1418 49.7453 46.1415 50.6508L46.1434 50.8065C46.1466 51.0723 46.1493 51.2958 46.1478 51.5469C46.1458 51.8495 46.1497 52.1131 46.1537 52.3767V54.9444H45.2901V55.8111H44.4237V56.6617H40.9664C40.9664 55.2555 40.9664 53.8558 40.9661 52.3773L40.9649 52.2819C40.9612 51.9845 40.9581 51.7427 40.9602 51.4694C40.9622 51.1715 40.9581 50.912 40.954 50.6526ZM28.0241 48.0932V50.6526L28.0241 50.653V50.6531V50.6532V50.6533V50.6533V50.6534V50.6534C28.0282 50.9126 28.0324 51.1718 28.0303 51.4694C28.0283 51.7427 28.0313 51.9846 28.0351 52.2819L28.0363 52.3773C28.0366 53.8573 28.0366 55.2584 28.0366 56.6579H32.3618V52.3767C32.3579 52.1131 32.3539 51.8495 32.3559 51.5469C32.357 51.2481 32.3521 50.9884 32.3039 50.6891C31.4359 50.6495 30.6111 50.6495 29.7468 50.6495V48.0932H28.0241ZM29.762 54.9326V53.366V52.3998H30.5986V54.9326H29.762ZM22.8735 50.6511C24.2786 50.6505 25.6837 50.65 27.132 50.6891C27.1801 50.9884 27.185 51.2481 27.184 51.5469C27.182 51.8495 27.186 52.1131 27.1899 52.3766V56.6578H22.8646C22.8646 55.2584 22.8646 53.8573 22.8643 52.3773L22.8631 52.2814C22.8594 51.9843 22.8563 51.7426 22.8584 51.4693C22.8676 51.171 22.8705 50.9111 22.8735 50.6511V50.6511V50.6511V50.6511V50.6511V50.6511V50.6511ZM24.5901 52.6068V54.9425H25.4208V52.2925C25.1125 52.3786 24.8516 52.4514 24.5901 52.6068ZM37.4758 50.6891C36.0275 50.65 34.6225 50.6505 33.2174 50.6511C33.2144 50.911 33.2115 51.171 33.2023 51.4693C33.2002 51.7427 33.2033 51.9845 33.207 52.2819L33.2082 52.3773C33.2085 53.8573 33.2085 55.2584 33.2085 56.6578H37.5338V52.3766C37.5298 52.1131 37.5259 51.8495 37.5279 51.5469C37.5289 51.2481 37.524 50.9884 37.4758 50.6891ZM34.9339 54.9336V54.2224V52.3988H35.7715V54.9336H34.9339ZM47.0093 50.6511C48.4143 50.6505 49.8194 50.65 51.2677 50.6891C51.3159 50.9884 51.3208 51.2481 51.3197 51.5469C51.3177 51.8495 51.3217 52.1131 51.3256 52.3766V56.6562H47.0296V53.2541H49.56V52.3725C48.7439 52.3725 47.9178 52.3725 47.0475 52.3312C46.9982 52.0292 46.993 51.7685 46.9941 51.4693C47.0033 51.171 47.0063 50.911 47.0093 50.6511ZM48.7258 54.4067V54.9305H49.5587V54.0974C49.4915 54.0974 49.4264 54.0955 49.3632 54.0937C49.2118 54.0894 49.0706 54.0854 48.9337 54.1078C48.8547 54.1207 48.7946 54.249 48.7258 54.4067ZM53.8537 50.6891C53.2674 50.65 52.7243 50.6505 52.1812 50.6511L52.1812 50.6516V50.6517V50.6517C52.1782 50.9114 52.1753 51.1712 52.1661 51.4693C52.164 51.7418 52.1671 51.9829 52.1708 52.2789L52.1708 52.2807L52.1708 52.2812L52.172 52.3773C52.1723 53.8573 52.1723 55.2584 52.1723 56.6578H56.4976V52.3766C56.4936 52.1131 56.4897 51.8495 56.4917 51.5469C56.4927 51.2481 56.4878 50.9884 56.4397 50.6891C55.8534 50.65 55.3103 50.6505 54.7672 50.6511C54.7642 50.911 54.7612 51.1709 54.7521 51.4692C54.7509 51.6237 54.7514 51.768 54.7518 51.9127C54.7523 52.051 54.7527 52.1896 54.7518 52.3375C54.7458 53.2205 54.7458 54.0643 54.7458 54.9336H53.8992C53.8992 54.1096 53.8992 53.2829 53.9054 52.4164C53.9066 52.2613 53.9061 52.1166 53.9056 51.9717V51.9716V51.9715C53.9052 51.8331 53.9047 51.6946 53.9057 51.5468C53.9067 51.248 53.9018 50.9884 53.8537 50.6891ZM63.3323 50.6503C63.3703 50.8815 63.377 51.112 63.3844 51.3692L63.3873 51.4694C63.3884 51.7685 63.3833 52.0291 63.3736 52.3284C62.8129 52.367 62.2568 52.367 61.6783 52.367V54.9509H63.3575V56.6616H59.9302C59.9302 55.2553 59.9302 53.8557 59.9299 52.3773L59.9287 52.2813L59.9287 52.2808C59.925 51.984 59.9219 51.7424 59.924 51.4694C59.9261 51.1715 59.9219 50.912 59.9178 50.6526V48.9549H61.6397V50.6495C62.2169 50.6495 62.7546 50.6495 63.3323 50.6503ZM57.3318 48.0914V50.6526C57.3359 50.912 57.3401 51.1715 57.338 51.4694C57.336 51.7425 57.339 51.9842 57.3428 52.2812C57.3432 52.3126 57.3436 52.3446 57.344 52.3773C57.3442 53.8571 57.3442 55.258 57.3442 56.6575H59.0836L59.0836 52.3766C59.0796 52.1131 59.0757 51.8495 59.0776 51.5469C59.0791 51.2956 59.0765 51.0721 59.0732 50.8061C59.0726 50.756 59.072 50.7044 59.0714 50.6508C59.0717 49.7453 59.0717 48.9185 59.0717 48.0914H57.3318Z" fill="white"/>
</svg>
