<svg width="80" height="80" viewBox="0 0 80 80" fill="none" xmlns="http://www.w3.org/2000/svg">
<rect width="80" height="80" rx="40" fill="black"/>
<path d="M30.6904 59.0753H48.8912M48.8912 59.0753H59.9791C62.7521 59.0753 65 56.8274 65 54.0544V52.1111C65 49.8522 63.3669 47.9245 61.1388 47.5531V47.5531C58.0084 47.0314 55.255 45.1853 53.5835 42.4875L44.2887 27.4854C41.569 26.6485 36.1297 27.4854 34.4561 27.4854C30.7741 27.4854 27.0642 23.2315 25.4603 21C22.113 22.046 20.0209 26.0209 18.1381 32.2971C17.7197 32.9247 16.1855 35.0167 15 36.4812C16.2552 41.0837 20.8577 44.6402 20.8577 44.6402C20.8577 44.6402 42.8243 57.1925 48.8912 59.0753Z" stroke="white" stroke-width="3.34728" stroke-linecap="round" stroke-linejoin="round"/>
<path d="M18.9749 42.9665L29.6443 42.1297C27.3431 40.2469 25.3347 27.3598 25.6694 21.8368" stroke="white" stroke-width="3.34728" stroke-linecap="round" stroke-linejoin="round"/>
<path d="M36.9666 27.067C36.9666 23.7197 39.477 20.5816 45.7532 21.6276L44.7071 27.9038" stroke="white" stroke-width="3.34728" stroke-linecap="round" stroke-linejoin="round"/>
<path d="M16.4645 52.3807H23.3682" stroke="white" stroke-width="3.34728" stroke-linecap="round" stroke-linejoin="round"/>
<path d="M41.7782 36.6904L47.6359 33.1339" stroke="white" stroke-width="3.34728" stroke-linecap="round" stroke-linejoin="round"/>
<path d="M45.1255 42.1297L50.9832 38.5732" stroke="white" stroke-width="3.34728" stroke-linecap="round" stroke-linejoin="round"/>
<path d="M18.3473 32.5063L28.3891 41.0837L50.1465 53.8452H65" stroke="white" stroke-width="3.34728" stroke-linecap="round" stroke-linejoin="round"/>
</svg>
