<?xml version="1.0" encoding="UTF-8"?><svg id="Layer_1" xmlns="http://www.w3.org/2000/svg" viewBox="0 0 80 80"><circle cx="40" cy="40" r="40" style="fill:#2b61d1;"/><g id="Group_179"><path id="Path_73" d="M44.63,62.87l-4.55,2.63-9.77-5.64,4.44-2.56,.11-.07,.17,.1,9.6,5.54Z" style="fill:#fff;"/><path id="Path_74" d="M62.09,27.37v5.29l-9.62-5.55-2.61-1.51-2.61,1.51-12.23,7.06-2.61,1.51v3.11l-4.71-2.72-2.61-1.51-2.61,1.51-4.43,2.55v-11.25l22.01-12.71,22.01,12.71Z" style="fill:#fff;"/><path id="Path_75" d="M62.09,38.68v14.12l-12.23,7.06h-.02s-12.21-7.06-12.21-7.06v-14.12l12.23-7.06,12.23,7.06Z" style="fill:#fff;"/><path id="Path_76" d="M32.13,44.65v8.12l-7.03,4.06-7.03-4.06v-8.12l7.03-4.06,7.03,4.06Z" style="fill:#fff;"/></g></svg>