<svg width="80" height="80" viewBox="0 0 80 80" fill="none" xmlns="http://www.w3.org/2000/svg">
<path d="M20.5474 67.9492C19.7754 67.9492 19.1606 67.7841 18.7027 67.4541C18.2502 67.1187 18.016 66.6396 18 66.0167H19.4214C19.48 66.5597 19.8526 66.8312 20.5394 66.8312C20.7949 66.8312 21.0105 66.7833 21.1862 66.6875C21.3672 66.5863 21.4577 66.4346 21.4577 66.2323C21.4577 66.0939 21.4018 65.9794 21.29 65.8889C21.1782 65.7931 21.0638 65.7266 20.9466 65.6893C20.8348 65.652 20.6192 65.5935 20.2998 65.5136C20.2838 65.5083 20.2732 65.5056 20.2679 65.5056C20.2625 65.5003 20.2546 65.4976 20.2439 65.4976C20.2333 65.4923 20.2226 65.4897 20.212 65.4897C19.9671 65.4311 19.7648 65.3805 19.6051 65.3379C19.4507 65.29 19.2724 65.2208 19.0701 65.1303C18.8731 65.0345 18.716 64.9307 18.5989 64.8189C18.4818 64.7071 18.3806 64.5607 18.2955 64.3797C18.2156 64.1933 18.1757 63.9857 18.1757 63.7568C18.1757 63.1712 18.3833 62.732 18.7985 62.4392C19.2191 62.1464 19.7675 62 20.4436 62C21.093 62 21.6227 62.1491 22.0327 62.4472C22.4479 62.7453 22.6688 63.1818 22.6955 63.7568H21.314C21.2874 63.5385 21.1942 63.3708 21.0345 63.2537C20.8748 63.1313 20.6618 63.0701 20.3956 63.0701C20.1508 63.0701 19.9511 63.1206 19.7967 63.2218C19.6477 63.3176 19.5731 63.4454 19.5731 63.6051C19.5731 63.7861 19.6636 63.9192 19.8446 64.0044C20.0256 64.0842 20.3664 64.18 20.8668 64.2918C21.1809 64.3664 21.4391 64.4409 21.6414 64.5154C21.8437 64.5846 22.0486 64.6858 22.2563 64.8189C22.4692 64.952 22.6262 65.125 22.7274 65.3379C22.8339 65.5455 22.8871 65.7958 22.8871 66.0886C22.8871 66.6688 22.6662 67.124 22.2243 67.4541C21.7878 67.7841 21.2288 67.9492 20.5474 67.9492Z" fill="black"/>
<path d="M24.7833 66.6797C24.9324 66.9033 25.1454 67.0151 25.4222 67.0151C25.699 67.0151 25.912 66.9033 26.061 66.6797C26.2154 66.4561 26.2926 66.1553 26.2926 65.7773C26.2926 65.3993 26.2154 65.0986 26.061 64.875C25.912 64.6461 25.699 64.5316 25.4222 64.5316C25.1454 64.5316 24.9324 64.6434 24.7833 64.867C24.6343 65.0906 24.5598 65.394 24.5598 65.7773C24.5598 66.1553 24.6343 66.4561 24.7833 66.6797ZM27.0033 67.3265C26.604 67.7364 26.0797 67.9414 25.4302 67.9414C24.7807 67.9414 24.2536 67.7364 23.849 67.3265C23.4445 66.9166 23.2422 66.4002 23.2422 65.7773C23.2422 65.1545 23.4445 64.6381 23.849 64.2281C24.2536 63.8182 24.7807 63.6133 25.4302 63.6133C26.0797 63.6133 26.604 63.8182 27.0033 64.2281C27.4079 64.6381 27.6102 65.1545 27.6102 65.7773C27.6102 66.4002 27.4079 66.9166 27.0033 67.3265Z" fill="black"/>
<path d="M28.0547 67.8151V62.1055H29.3723V67.8151H28.0547Z" fill="black"/>
<path d="M30.0078 67.8151V63.7266H31.3094V67.8151H30.0078ZM30.0078 63.1596V62.1055H31.3094V63.1596H30.0078Z" fill="black"/>
<path d="M33.5388 67.9429C33.0064 67.9429 32.5752 67.7486 32.2451 67.36C31.915 66.9713 31.75 66.4416 31.75 65.7708C31.75 65.132 31.915 64.6129 32.2451 64.2137C32.5805 63.8091 33.0117 63.6068 33.5388 63.6068C34.0285 63.6068 34.4092 63.8011 34.6807 64.1897H34.7046V62.1055H36.0063V67.8151H34.7605V67.2641H34.7446C34.4784 67.7166 34.0764 67.9429 33.5388 67.9429ZM33.8741 66.9128C34.1403 66.9128 34.3506 66.809 34.505 66.6013C34.6594 66.3884 34.7366 66.1116 34.7366 65.7708C34.7366 65.4142 34.6647 65.1293 34.521 64.9164C34.3772 64.6981 34.1669 64.589 33.8901 64.589C33.6346 64.589 33.4323 64.6955 33.2832 64.9084C33.1395 65.1214 33.0676 65.4035 33.0676 65.7549C33.0676 66.1116 33.1395 66.3937 33.2832 66.6013C33.427 66.809 33.6239 66.9128 33.8741 66.9128Z" fill="black"/>
<path d="M36.625 67.8151V63.7266H37.9266V67.8151H36.625ZM36.625 63.1596V62.1055H37.9266V63.1596H36.625Z" fill="black"/>
<path d="M40.1728 67.8598C39.7575 67.8598 39.4355 67.7773 39.2065 67.6123C38.983 67.4419 38.8712 67.1491 38.8712 66.7339V64.5379H38.3281V63.7234H38.8712V62.4297H40.1408V63.7234H40.8835V64.5379H40.1408V66.4544C40.1408 66.6035 40.1781 66.7073 40.2526 66.7658C40.3325 66.8244 40.447 66.8537 40.596 66.8537C40.6386 66.8537 40.6945 66.8537 40.7637 66.8537C40.8329 66.8483 40.8728 66.8457 40.8835 66.8457V67.796C40.7344 67.8385 40.4975 67.8598 40.1728 67.8598Z" fill="black"/>
<path d="M41.604 69.1647V68.1505H42.0511C42.4078 68.1505 42.5862 68.0068 42.5862 67.7193C42.5862 67.5809 42.5037 67.2987 42.3386 66.8728L41.1328 63.7266H42.5063L43.0573 65.4674L43.3129 66.4097H43.3288C43.4034 66.0477 43.4832 65.7336 43.5684 65.4674L44.1034 63.7266H45.405L43.9916 67.871C43.8266 68.3501 43.6296 68.6855 43.4007 68.8772C43.1771 69.0688 42.8603 69.1647 42.4504 69.1647H41.604Z" fill="black"/>
<path d="M48.2895 67.9492C47.5176 67.9492 46.9027 67.7841 46.4449 67.4541C45.9924 67.1187 45.7581 66.6396 45.7422 66.0167H47.1636C47.2221 66.5597 47.5948 66.8312 48.2816 66.8312C48.5371 66.8312 48.7527 66.7833 48.9284 66.6875C49.1094 66.5863 49.1999 66.4346 49.1999 66.2323C49.1999 66.0939 49.144 65.9794 49.0322 65.8889C48.9204 65.7931 48.8059 65.7266 48.6888 65.6893C48.577 65.652 48.3614 65.5935 48.042 65.5136C48.026 65.5083 48.0154 65.5056 48.01 65.5056C48.0047 65.5003 47.9967 65.4976 47.9861 65.4976C47.9754 65.4923 47.9648 65.4897 47.9541 65.4897C47.7093 65.4311 47.507 65.3805 47.3473 65.3379C47.1929 65.29 47.0145 65.2208 46.8122 65.1303C46.6153 65.0345 46.4582 64.9307 46.3411 64.8189C46.224 64.7071 46.1228 64.5607 46.0376 64.3797C45.9578 64.1933 45.9179 63.9857 45.9179 63.7568C45.9179 63.1712 46.1255 62.732 46.5407 62.4392C46.9613 62.1464 47.5096 62 48.1857 62C48.8352 62 49.3649 62.1491 49.7748 62.4472C50.1901 62.7453 50.411 63.1818 50.4376 63.7568H49.0561C49.0295 63.5385 48.9364 63.3708 48.7767 63.2537C48.6169 63.1313 48.404 63.0701 48.1378 63.0701C47.8929 63.0701 47.6933 63.1206 47.5389 63.2218C47.3898 63.3176 47.3153 63.4454 47.3153 63.6051C47.3153 63.7861 47.4058 63.9192 47.5868 64.0044C47.7678 64.0842 48.1085 64.18 48.609 64.2918C48.9231 64.3664 49.1812 64.4409 49.3835 64.5154C49.5858 64.5846 49.7908 64.6858 49.9984 64.8189C50.2114 64.952 50.3684 65.125 50.4696 65.3379C50.576 65.5455 50.6293 65.7958 50.6293 66.0886C50.6293 66.6688 50.4083 67.124 49.9665 67.4541C49.5299 67.7841 48.971 67.9492 48.2895 67.9492Z" fill="black"/>
<path d="M53.1565 67.9414C52.507 67.9414 51.9826 67.7364 51.5833 67.3265C51.1841 66.9166 50.9844 66.4002 50.9844 65.7773C50.9844 65.1545 51.1814 64.6381 51.5753 64.2281C51.9693 63.8182 52.4857 63.6133 53.1245 63.6133C53.6675 63.6133 54.1121 63.757 54.4581 64.0445C54.8041 64.332 55.0064 64.7099 55.065 65.1784H53.8113C53.7208 64.7738 53.4972 64.5715 53.1405 64.5715C52.8637 64.5715 52.6534 64.678 52.5096 64.8909C52.3712 65.1039 52.302 65.3993 52.302 65.7773C52.302 66.15 52.3739 66.4428 52.5176 66.6557C52.6614 66.8634 52.869 66.9672 53.1405 66.9672C53.5557 66.9672 53.7926 66.7329 53.8512 66.2644H55.0969C55.081 66.7489 54.8946 67.1508 54.538 67.4702C54.1866 67.7843 53.7261 67.9414 53.1565 67.9414Z" fill="black"/>
<path d="M56.7958 67.9174C56.3753 67.9174 56.0372 67.8083 55.7817 67.59C55.5261 67.3718 55.3984 67.0656 55.3984 66.6717C55.3984 66.2565 55.5368 65.9557 55.8136 65.7693C56.0905 65.5777 56.4738 65.4499 56.9635 65.386C57.3628 65.3381 57.6343 65.2849 57.7781 65.2263C57.9271 65.1624 58.0016 65.064 58.0016 64.9309C58.0016 64.6381 57.8153 64.4917 57.4427 64.4917C57.0434 64.4917 56.8225 64.6673 56.7799 65.0187H55.582C55.598 64.6141 55.7631 64.2787 56.0771 64.0125C56.3966 63.7464 56.8491 63.6133 57.4347 63.6133C58.0203 63.6133 58.4621 63.7251 58.7603 63.9487C59.1063 64.1989 59.2793 64.5875 59.2793 65.1145V67.1748C59.2793 67.4995 59.3272 67.6938 59.4231 67.7577V67.8136H58.1614C58.1081 67.7391 58.0629 67.5874 58.0256 67.3585H58.0096C57.7488 67.7311 57.3442 67.9174 56.7958 67.9174ZM57.2111 67.0869C57.456 67.0869 57.6529 67.0204 57.802 66.8873C57.9564 66.7489 58.0336 66.5706 58.0336 66.3523V65.8652C57.9058 65.9291 57.6822 66.0009 57.3628 66.0808C57.1019 66.1393 56.9183 66.2085 56.8118 66.2884C56.7053 66.3683 56.6521 66.4827 56.6521 66.6318C56.6521 66.9352 56.8384 67.0869 57.2111 67.0869Z" fill="black"/>
<path d="M59.9141 67.8138V63.7253H61.1678V64.2842H61.1918C61.5059 63.8317 61.9264 63.6055 62.4535 63.6055C62.8953 63.6055 63.2414 63.7492 63.4916 64.0367C63.7471 64.3188 63.8749 64.6915 63.8749 65.1547V67.8138H62.5733V65.4182C62.5733 65.1946 62.5174 65.0189 62.4056 64.8911C62.2991 64.758 62.142 64.6915 61.9344 64.6915C61.7215 64.6915 61.5485 64.7714 61.4154 64.9311C61.2823 65.0908 61.2157 65.2984 61.2157 65.5539V67.8138H59.9141Z" fill="black"/>
<path d="M19.35 12.3333V24H24.05V14.6667H33.45V10H21.7C21.0767 10 20.479 10.2458 20.0383 10.6834C19.5976 11.121 19.35 11.7145 19.35 12.3333ZM61.65 24V12.3333C61.65 11.7145 61.4024 11.121 60.9617 10.6834C60.521 10.2458 59.9233 10 59.3 10H47.55V14.6667H56.95V24H61.65ZM56.95 47.3333H47.55V52H59.3C59.9233 52 60.521 51.7542 60.9617 51.3166C61.4024 50.879 61.65 50.2855 61.65 49.6667V38H56.95V47.3333ZM33.45 52V47.3333H24.05V38H19.35V49.6667C19.35 50.2855 19.5976 50.879 20.0383 51.3166C20.479 51.7542 21.0767 52 21.7 52H33.45ZM17 28.6667H64V33.3333H17V28.6667Z" fill="url(#paint0_linear_1407_2002)"/>
<defs>
<linearGradient id="paint0_linear_1407_2002" x1="21.5321" y1="13" x2="61.3091" y2="49.2817" gradientUnits="userSpaceOnUse">
<stop stop-color="#52FF00"/>
<stop offset="1" stop-color="#00EEFD"/>
</linearGradient>
</defs>
</svg>
