<svg width="80" height="80" viewBox="0 0 80 80" fill="none" xmlns="http://www.w3.org/2000/svg">
<rect width="80" height="80" rx="40" fill="#08002B"/>
<path d="M57.258 27.523V36.9902L51.6663 33.5335C50.942 33.0858 50.5012 32.295 50.5012 31.4436V31.057C50.5012 30.2355 50.0907 29.4683 49.4071 29.0126L41.0751 23.4579C40.3016 22.9423 39.3033 22.9073 38.4957 23.3676L29.6287 28.4208C28.8617 28.8579 28.3882 29.6728 28.3882 30.5555V33.2251C28.3882 34.0428 28.795 34.8069 29.4734 35.2635L47.9214 47.6781L42.8287 50.6162C42.0329 51.0753 41.0475 51.0521 40.2742 50.556L23.1303 39.558C22.4259 39.1062 22 38.3269 22 37.49V27.5382C22 26.6926 22.4347 25.9065 23.1509 25.4571L38.4934 15.8283C39.2991 15.3227 40.3243 15.3275 41.1252 15.8408L56.1267 25.4544C56.8316 25.9061 57.258 26.6858 57.258 27.523Z" fill="white"/>
<path d="M22 52.477V43.0098L27.5917 46.4665C28.316 46.9142 28.7568 47.705 28.7568 48.5564V48.943C28.7568 49.7645 29.1674 50.5317 29.8509 50.9874L38.1829 56.5421C38.9564 57.0577 39.9547 57.0927 40.7624 56.6324L49.6294 51.5792C50.3963 51.1421 50.8698 50.3272 50.8698 49.4445V46.7749C50.8698 45.9572 50.463 45.1931 49.7846 44.7365L31.3367 32.3219L36.4293 29.3838C37.2251 28.9247 38.2105 28.9479 38.9838 29.444L56.1277 40.442C56.8321 40.8938 57.258 41.6731 57.258 42.51V52.4618C57.258 53.3074 56.8233 54.0935 56.1071 54.5429L40.7646 64.1717C39.9589 64.6773 38.9337 64.6725 38.1328 64.1592L23.1313 54.5456C22.4264 54.0939 22 53.3142 22 52.477Z" fill="white"/>
</svg>
