<svg width="700" height="494" viewBox="0 0 700 494" fill="none" xmlns="http://www.w3.org/2000/svg">
<g clip-path="url(#clip0_529_5629)">
<path d="M202.659 126.865L126.91 183.356V303.559L164.786 331.362L202.659 304L239.602 331.362L278.168 304V182.471L202.659 126.865Z" fill="#2C2C2C"/>
<path d="M166.145 208.512L139.206 188.785L202.242 143.638L266.117 189.094L239.182 208.822L202.242 183.092L166.145 208.512Z" fill="#1AE5BE"/>
<path d="M166.145 267.54L139.206 247.813L202.242 202.667L266.117 248.123L239.182 267.85L202.242 242.121L166.145 267.54Z" fill="url(#paint0_linear_529_5629)"/>
<path d="M175.255 287.919V347.057L202.665 367.13L230.078 347.057V287.919H175.255Z" fill="#2C2C2C"/>
<path d="M230.078 287.92L202.665 307.997L175.255 287.92L202.665 267.847L230.078 287.92Z" fill="#4B94CD"/>
<path d="M325.135 236.707C325.004 236.71 324.875 236.686 324.754 236.636C324.634 236.587 324.525 236.512 324.435 236.419C324.341 236.328 324.267 236.219 324.218 236.099C324.168 235.978 324.144 235.849 324.147 235.719V212.949H316.527C316.397 212.95 316.267 212.926 316.147 212.877C316.026 212.828 315.917 212.755 315.825 212.663C315.733 212.571 315.66 212.461 315.611 212.341C315.562 212.22 315.537 212.091 315.539 211.961V208.915C315.535 208.78 315.559 208.646 315.608 208.521C315.658 208.395 315.732 208.281 315.827 208.186C315.917 208.092 316.026 208.018 316.146 207.968C316.267 207.919 316.396 207.895 316.527 207.898H337.53C337.667 207.892 337.804 207.914 337.932 207.963C338.059 208.013 338.175 208.088 338.272 208.185C338.369 208.281 338.445 208.397 338.495 208.525C338.545 208.652 338.568 208.789 338.562 208.925V211.972C338.564 212.103 338.539 212.232 338.49 212.353C338.44 212.474 338.367 212.584 338.274 212.676C338.177 212.769 338.063 212.842 337.938 212.891C337.813 212.939 337.679 212.963 337.545 212.96H329.947V235.719C329.949 235.849 329.925 235.978 329.876 236.098C329.828 236.218 329.755 236.327 329.663 236.419C329.567 236.513 329.453 236.587 329.327 236.636C329.202 236.686 329.068 236.71 328.933 236.707H325.135Z" fill="#2C2C2C"/>
<path d="M345.772 236.707C345.642 236.707 345.513 236.682 345.393 236.632C345.273 236.583 345.163 236.51 345.071 236.419C344.979 236.327 344.906 236.218 344.856 236.098C344.806 235.978 344.78 235.849 344.78 235.719V208.914C344.777 208.78 344.801 208.645 344.852 208.52C344.902 208.395 344.977 208.281 345.072 208.186C345.163 208.092 345.272 208.018 345.392 207.969C345.513 207.919 345.642 207.895 345.772 207.898H356.44C359.762 207.898 362.384 208.665 364.304 210.201C366.224 211.736 367.185 213.974 367.188 216.914C367.188 218.947 366.687 220.635 365.686 221.976C364.671 223.327 363.274 224.343 361.675 224.891L367.687 235.387C367.764 235.527 367.806 235.683 367.811 235.843C367.813 235.959 367.791 236.073 367.745 236.18C367.699 236.286 367.631 236.381 367.545 236.459C367.386 236.617 367.171 236.706 366.947 236.707H363.192C362.999 236.72 362.805 236.694 362.621 236.632C362.438 236.569 362.269 236.471 362.124 236.342C361.898 236.127 361.704 235.882 361.548 235.613L356.236 225.839H350.508V235.719C350.514 235.978 350.419 236.229 350.242 236.419C350.148 236.516 350.035 236.593 349.909 236.642C349.783 236.692 349.648 236.714 349.513 236.707H345.772ZM350.512 221.185H356.32C357.992 221.185 359.241 220.807 360.067 220.052C360.894 219.296 361.306 218.233 361.303 216.863C361.303 215.49 360.899 214.413 360.089 213.63C359.28 212.848 358.022 212.46 356.316 212.468H350.508L350.512 221.185Z" fill="#2C2C2C"/>
<path d="M375.549 236.706C375.419 236.707 375.291 236.682 375.171 236.632C375.05 236.583 374.941 236.51 374.849 236.418C374.758 236.326 374.685 236.217 374.635 236.097C374.586 235.977 374.561 235.849 374.561 235.719V208.914C374.558 208.78 374.581 208.646 374.631 208.521C374.68 208.395 374.754 208.281 374.849 208.186C374.94 208.092 375.049 208.018 375.169 207.969C375.29 207.919 375.419 207.895 375.549 207.898H393.673C393.809 207.892 393.946 207.915 394.073 207.964C394.201 208.014 394.317 208.089 394.413 208.186C394.51 208.282 394.586 208.398 394.636 208.525C394.686 208.652 394.71 208.789 394.704 208.925V211.644C394.707 211.774 394.682 211.904 394.632 212.024C394.582 212.145 394.507 212.253 394.413 212.344C394.317 212.438 394.203 212.512 394.078 212.562C393.952 212.611 393.818 212.635 393.684 212.632H380.132V219.92H392.776C393.044 219.913 393.305 220.008 393.505 220.186C393.603 220.28 393.68 220.393 393.729 220.519C393.779 220.645 393.801 220.78 393.793 220.915V223.466C393.801 223.601 393.779 223.737 393.729 223.862C393.68 223.988 393.603 224.102 393.505 224.195C393.305 224.375 393.044 224.471 392.776 224.465H380.132V231.998H394.012C394.149 231.991 394.285 232.013 394.413 232.062C394.541 232.111 394.657 232.187 394.754 232.284C394.851 232.381 394.926 232.497 394.975 232.624C395.025 232.752 395.047 232.889 395.04 233.026V235.744C395.042 235.874 395.018 236.003 394.969 236.123C394.92 236.243 394.848 236.353 394.756 236.444C394.659 236.538 394.545 236.612 394.42 236.662C394.295 236.711 394.161 236.735 394.026 236.732L375.549 236.706Z" fill="#2C2C2C"/>
<path d="M403.231 236.706C403.1 236.709 402.971 236.685 402.851 236.635C402.73 236.586 402.621 236.512 402.531 236.418C402.438 236.327 402.365 236.218 402.315 236.098C402.266 235.978 402.241 235.849 402.243 235.719V208.914C402.24 208.78 402.263 208.646 402.313 208.521C402.362 208.396 402.436 208.282 402.531 208.186C402.621 208.092 402.73 208.018 402.851 207.969C402.971 207.919 403.1 207.895 403.231 207.898H421.354C421.491 207.892 421.627 207.915 421.754 207.964C421.882 208.014 421.998 208.089 422.095 208.186C422.192 208.282 422.268 208.398 422.318 208.525C422.368 208.652 422.391 208.789 422.386 208.925V211.644C422.388 211.774 422.363 211.904 422.313 212.024C422.263 212.145 422.188 212.253 422.094 212.344C421.998 212.438 421.884 212.513 421.759 212.562C421.634 212.612 421.5 212.635 421.365 212.632H407.813V219.92H420.461C420.729 219.913 420.99 220.008 421.19 220.186C421.288 220.28 421.364 220.393 421.414 220.519C421.464 220.645 421.486 220.78 421.478 220.915V223.466C421.486 223.601 421.464 223.737 421.414 223.862C421.364 223.988 421.288 224.102 421.19 224.195C420.99 224.375 420.729 224.472 420.461 224.465H407.813V231.998H421.693C421.83 231.992 421.966 232.014 422.094 232.063C422.222 232.113 422.338 232.188 422.435 232.285C422.532 232.381 422.608 232.497 422.658 232.625C422.708 232.752 422.73 232.889 422.725 233.026V235.744C422.727 235.874 422.703 236.004 422.653 236.124C422.604 236.244 422.53 236.353 422.437 236.444C422.341 236.538 422.227 236.612 422.101 236.662C421.976 236.711 421.842 236.735 421.708 236.732L403.231 236.706Z" fill="#2C2C2C"/>
<path d="M430.906 236.707C430.647 236.713 430.395 236.618 430.206 236.441C430.109 236.347 430.033 236.233 429.983 236.107C429.933 235.982 429.911 235.847 429.918 235.712V208.915C429.915 208.78 429.939 208.646 429.988 208.521C430.038 208.396 430.112 208.282 430.206 208.186C430.296 208.092 430.405 208.018 430.526 207.969C430.646 207.919 430.776 207.895 430.906 207.898H434.654C434.789 207.891 434.924 207.912 435.05 207.962C435.176 208.012 435.289 208.088 435.383 208.186C435.562 208.385 435.658 208.646 435.649 208.915V219.538H447.801V208.915C447.797 208.78 447.821 208.646 447.87 208.521C447.92 208.395 447.994 208.281 448.089 208.186C448.179 208.092 448.288 208.018 448.409 207.969C448.529 207.919 448.658 207.895 448.789 207.898H452.496C452.633 207.892 452.77 207.915 452.897 207.964C453.024 208.014 453.14 208.09 453.237 208.186C453.334 208.283 453.41 208.398 453.46 208.525C453.51 208.653 453.533 208.789 453.528 208.925V235.719C453.53 235.849 453.505 235.979 453.455 236.099C453.405 236.219 453.33 236.328 453.237 236.419C453.141 236.513 453.027 236.587 452.901 236.637C452.776 236.686 452.642 236.71 452.507 236.707H448.8C448.67 236.707 448.541 236.682 448.421 236.632C448.301 236.583 448.192 236.51 448.1 236.418C448.008 236.327 447.935 236.218 447.886 236.097C447.836 235.977 447.811 235.849 447.812 235.719V224.684H435.642V235.719C435.648 235.978 435.552 236.229 435.376 236.419C435.282 236.516 435.168 236.593 435.042 236.642C434.917 236.692 434.782 236.714 434.646 236.707H430.906Z" fill="#2C2C2C"/>
<path d="M473.083 237.118C470.919 237.174 468.768 236.76 466.779 235.905C465.044 235.117 463.601 233.802 462.656 232.147C461.667 230.447 461.131 228.34 461.048 225.828C461.023 224.647 461.008 223.477 461.008 222.326C461.008 221.174 461.008 219.993 461.048 218.787C461.128 216.292 461.678 214.206 462.696 212.529C463.683 210.879 465.139 209.56 466.878 208.739C468.839 207.898 470.951 207.464 473.085 207.464C475.219 207.464 477.331 207.898 479.292 208.739C481.039 209.556 482.503 210.876 483.495 212.529C484.511 214.201 485.061 216.287 485.143 218.787C485.197 220.002 485.225 221.181 485.227 222.326C485.227 223.477 485.198 224.647 485.143 225.828C485.058 228.35 484.522 230.456 483.536 232.147C482.586 233.801 481.138 235.112 479.398 235.894C477.405 236.75 475.251 237.168 473.083 237.118ZM473.083 232.381C474.869 232.381 476.32 231.852 477.458 230.795C478.595 229.738 479.19 228.015 479.281 225.627C479.337 224.413 479.365 223.294 479.365 222.271C479.365 221.248 479.337 220.144 479.281 218.958C479.284 217.611 478.982 216.28 478.399 215.066C477.925 214.127 477.167 213.362 476.233 212.879C475.258 212.412 474.186 212.18 473.105 212.201C472.035 212.183 470.977 212.415 470.013 212.879C469.08 213.361 468.325 214.127 467.855 215.066C467.267 216.279 466.964 217.61 466.969 218.958C466.94 220.139 466.925 221.243 466.925 222.271C466.925 223.299 466.94 224.418 466.969 225.627C467.049 228.013 467.657 229.736 468.792 230.795C469.96 231.864 471.5 232.434 473.083 232.384V232.381Z" fill="#2C2C2C"/>
<path d="M504.177 237.118C502.04 237.169 499.918 236.755 497.957 235.905C496.23 235.122 494.801 233.805 493.881 232.147C492.909 230.447 492.423 228.284 492.423 225.66V208.896C492.42 208.761 492.444 208.627 492.494 208.502C492.544 208.376 492.619 208.263 492.715 208.167C492.804 208.074 492.913 208 493.033 207.95C493.152 207.901 493.281 207.876 493.411 207.879H497.163C497.298 207.871 497.433 207.893 497.559 207.943C497.685 207.992 497.799 208.069 497.892 208.167C498.072 208.366 498.169 208.627 498.162 208.896V225.66C498.162 227.912 498.696 229.58 499.766 230.664C500.835 231.748 502.304 232.289 504.174 232.289C506.04 232.289 507.499 231.748 508.549 230.664C509.599 229.58 510.127 227.912 510.135 225.66V208.896C510.128 208.759 510.15 208.623 510.199 208.495C510.248 208.367 510.324 208.251 510.421 208.154C510.517 208.057 510.634 207.982 510.761 207.933C510.889 207.883 511.026 207.862 511.163 207.868H514.867C515.002 207.861 515.137 207.882 515.263 207.932C515.389 207.982 515.503 208.058 515.596 208.156C515.775 208.356 515.871 208.617 515.862 208.885V225.649C515.862 228.285 515.389 230.448 514.444 232.136C513.543 233.794 512.13 235.116 510.415 235.905C508.449 236.758 506.32 237.172 504.177 237.118V237.118Z" fill="#2C2C2C"/>
<path d="M534.114 237.118C531.562 237.118 529.428 236.74 527.712 235.985C526.167 235.363 524.815 234.34 523.797 233.022C522.945 231.912 522.449 230.57 522.375 229.173C522.372 229.059 522.392 228.945 522.434 228.839C522.477 228.732 522.54 228.636 522.621 228.555C522.702 228.474 522.798 228.41 522.904 228.367C523.011 228.324 523.124 228.303 523.239 228.306H526.907C527.194 228.285 527.479 228.366 527.712 228.536C527.897 228.695 528.056 228.882 528.183 229.089C528.383 229.667 528.707 230.194 529.131 230.635C529.669 231.19 530.324 231.618 531.048 231.888C532.029 232.249 533.07 232.417 534.114 232.384C536.091 232.384 537.567 232.055 538.544 231.396C538.999 231.115 539.372 230.721 539.627 230.252C539.883 229.783 540.012 229.255 540.003 228.721C540.018 228.364 539.956 228.008 539.82 227.677C539.685 227.346 539.48 227.049 539.219 226.804C538.506 226.217 537.688 225.771 536.809 225.489C535.399 224.992 533.962 224.572 532.507 224.232C530.72 223.834 528.986 223.232 527.337 222.438C526.075 221.849 524.994 220.933 524.205 219.785C523.463 218.558 523.098 217.14 523.155 215.707C523.132 214.193 523.586 212.711 524.453 211.469C525.396 210.175 526.678 209.166 528.157 208.553C529.976 207.798 531.934 207.433 533.903 207.482C535.513 207.457 537.115 207.703 538.643 208.211C539.892 208.621 541.052 209.262 542.063 210.102C542.902 210.807 543.606 211.659 544.141 212.617C544.595 213.417 544.856 214.311 544.903 215.23C544.902 215.45 544.822 215.662 544.677 215.828C544.597 215.917 544.499 215.988 544.388 216.034C544.278 216.08 544.158 216.1 544.039 216.094H540.207C539.977 216.091 539.751 216.035 539.547 215.93C539.303 215.792 539.115 215.574 539.015 215.314C538.909 214.859 538.712 214.431 538.436 214.055C538.159 213.679 537.809 213.363 537.407 213.127C536.355 212.483 535.135 212.167 533.903 212.22C532.423 212.22 531.229 212.494 530.323 213.043C529.97 213.28 529.669 213.587 529.441 213.946C529.213 214.305 529.063 214.707 528.998 215.127C528.934 215.548 528.958 215.976 529.069 216.387C529.18 216.797 529.374 217.18 529.641 217.511C530.256 218.122 531.005 218.58 531.829 218.849C533.132 219.328 534.46 219.741 535.806 220.084C537.771 220.491 539.688 221.102 541.527 221.906C542.838 222.45 543.968 223.357 544.782 224.519C545.509 225.727 545.866 227.12 545.81 228.528C545.858 230.192 545.344 231.824 544.352 233.16C543.286 234.503 541.867 235.522 540.254 236.105C538.288 236.821 536.206 237.165 534.114 237.118V237.118Z" fill="#2C2C2C"/>
<path d="M553.605 236.706C553.475 236.709 553.346 236.685 553.225 236.635C553.105 236.586 552.996 236.512 552.905 236.418C552.813 236.327 552.739 236.218 552.69 236.098C552.64 235.978 552.616 235.849 552.617 235.719V208.914C552.614 208.78 552.638 208.646 552.688 208.521C552.737 208.396 552.811 208.282 552.905 208.186C552.996 208.092 553.105 208.018 553.225 207.969C553.346 207.919 553.475 207.895 553.605 207.898H571.729C571.866 207.892 572.002 207.915 572.129 207.964C572.257 208.014 572.373 208.089 572.47 208.186C572.567 208.282 572.642 208.398 572.693 208.525C572.743 208.652 572.766 208.789 572.761 208.925V211.644C572.763 211.774 572.738 211.904 572.688 212.024C572.638 212.145 572.563 212.253 572.469 212.344C572.373 212.438 572.259 212.513 572.134 212.562C572.009 212.612 571.874 212.635 571.74 212.632H558.177V219.92H570.825C571.093 219.913 571.354 220.008 571.554 220.186C571.652 220.28 571.728 220.393 571.778 220.519C571.828 220.645 571.85 220.78 571.842 220.915V223.466C571.85 223.601 571.828 223.737 571.778 223.862C571.728 223.988 571.652 224.102 571.554 224.195C571.354 224.375 571.093 224.472 570.825 224.465H558.177V231.998H572.057C572.194 231.992 572.33 232.014 572.458 232.063C572.586 232.113 572.702 232.188 572.799 232.285C572.896 232.381 572.972 232.497 573.022 232.625C573.072 232.752 573.095 232.889 573.089 233.026V235.744C573.091 235.874 573.067 236.004 573.017 236.124C572.968 236.244 572.894 236.353 572.801 236.444C572.705 236.538 572.591 236.612 572.465 236.662C572.34 236.711 572.206 236.735 572.072 236.732L553.605 236.706Z" fill="#2C2C2C"/>
<path d="M318.792 286.114C318.662 286.114 318.534 286.089 318.413 286.039C318.293 285.99 318.184 285.917 318.092 285.825C318.001 285.734 317.928 285.624 317.878 285.504C317.829 285.384 317.804 285.256 317.804 285.126V258.321C317.801 258.187 317.825 258.053 317.874 257.928C317.924 257.803 317.998 257.689 318.092 257.593C318.183 257.499 318.292 257.425 318.412 257.376C318.533 257.326 318.662 257.302 318.792 257.305H336.657C336.793 257.299 336.929 257.322 337.057 257.371C337.184 257.421 337.3 257.496 337.396 257.593C337.493 257.69 337.568 257.805 337.618 257.932C337.668 258.06 337.69 258.196 337.685 258.332V261.215C337.693 261.35 337.672 261.486 337.622 261.612C337.572 261.738 337.495 261.851 337.397 261.944C337.199 262.126 336.937 262.223 336.668 262.214H323.444V270.013H335.84C335.977 270.008 336.113 270.032 336.24 270.082C336.367 270.132 336.483 270.208 336.58 270.305C336.677 270.401 336.752 270.517 336.803 270.644C336.853 270.771 336.876 270.907 336.872 271.044V273.927C336.874 274.057 336.849 274.186 336.798 274.307C336.748 274.427 336.674 274.536 336.58 274.626C336.484 274.721 336.37 274.795 336.245 274.844C336.119 274.893 335.986 274.917 335.851 274.914H323.455V285.119C323.457 285.248 323.433 285.377 323.385 285.498C323.336 285.618 323.263 285.727 323.171 285.818C323.074 285.912 322.96 285.986 322.835 286.035C322.71 286.084 322.576 286.109 322.442 286.106L318.792 286.114Z" fill="#2C2C2C"/>
<path d="M345.626 286.113C345.496 286.114 345.367 286.089 345.247 286.039C345.127 285.99 345.018 285.917 344.926 285.825C344.834 285.733 344.761 285.624 344.712 285.504C344.662 285.384 344.637 285.256 344.637 285.126V258.281C344.637 258.151 344.662 258.023 344.712 257.903C344.761 257.783 344.834 257.674 344.926 257.582C345.018 257.49 345.127 257.417 345.247 257.368C345.367 257.318 345.496 257.293 345.626 257.294H349.497C349.633 257.286 349.768 257.308 349.893 257.358C350.019 257.408 350.133 257.484 350.227 257.582C350.404 257.771 350.499 258.022 350.493 258.281V285.126C350.499 285.385 350.403 285.636 350.227 285.826C350.133 285.923 350.019 285.998 349.893 286.048C349.767 286.098 349.632 286.12 349.497 286.113H345.626Z" fill="#2C2C2C"/>
<path d="M359.98 286.113C359.718 286.113 359.466 286.009 359.281 285.824C359.096 285.639 358.992 285.388 358.992 285.126V258.321C358.988 258.186 359.013 258.052 359.063 257.927C359.113 257.802 359.188 257.688 359.283 257.592C359.373 257.499 359.482 257.425 359.601 257.375C359.721 257.326 359.85 257.302 359.98 257.305H363.152C363.303 257.291 363.456 257.308 363.601 257.353C363.746 257.399 363.881 257.473 363.997 257.571C364.129 257.69 364.251 257.821 364.362 257.961L376.226 276.405V258.321C376.216 258.053 376.312 257.792 376.492 257.592C376.585 257.494 376.698 257.418 376.824 257.368C376.95 257.318 377.086 257.297 377.221 257.305H380.681C380.817 257.299 380.954 257.322 381.081 257.371C381.208 257.421 381.324 257.496 381.42 257.593C381.517 257.69 381.592 257.805 381.642 257.932C381.692 258.06 381.715 258.196 381.709 258.332V285.093C381.712 285.228 381.688 285.361 381.639 285.487C381.589 285.612 381.515 285.726 381.421 285.822C381.33 285.915 381.221 285.988 381.1 286.037C380.98 286.087 380.851 286.111 380.721 286.11H377.509C377.359 286.124 377.207 286.106 377.065 286.057C376.923 286.007 376.793 285.927 376.685 285.822C376.579 285.686 376.456 285.564 376.32 285.457L364.501 267.425V285.129C364.502 285.259 364.477 285.388 364.428 285.509C364.379 285.629 364.305 285.738 364.213 285.829C364.116 285.923 364.002 285.997 363.877 286.046C363.752 286.096 363.618 286.12 363.483 286.117L359.98 286.113Z" fill="#2C2C2C"/>
<path d="M388.4 286.113C388.176 286.112 387.962 286.023 387.802 285.866C387.716 285.788 387.647 285.693 387.6 285.587C387.554 285.481 387.531 285.366 387.533 285.25C387.537 285.124 387.564 285.001 387.613 284.885L397.54 258.329C397.627 258.046 397.791 257.793 398.014 257.6C398.289 257.382 398.634 257.273 398.984 257.294H403.472C403.816 257.27 404.155 257.38 404.42 257.6C404.636 257.804 404.804 258.053 404.912 258.329L414.84 284.885C414.867 285.005 414.882 285.127 414.884 285.25C414.886 285.364 414.866 285.477 414.823 285.583C414.781 285.689 414.717 285.785 414.636 285.866C414.561 285.943 414.472 286.005 414.373 286.048C414.274 286.09 414.168 286.113 414.06 286.113H410.476C410.17 286.139 409.866 286.044 409.63 285.847C409.47 285.705 409.345 285.528 409.266 285.33L407.33 280.308H395.098L393.162 285.33C393.081 285.528 392.956 285.704 392.797 285.847C392.561 286.044 392.257 286.139 391.951 286.113H388.4ZM396.552 275.574H405.904L401.208 262.851L396.552 275.574Z" fill="#2C2C2C"/>
<path d="M421.697 286.113C421.435 286.113 421.184 286.009 420.998 285.824C420.813 285.639 420.709 285.388 420.709 285.126V258.321C420.706 258.186 420.73 258.052 420.78 257.927C420.83 257.802 420.905 257.688 421.001 257.592C421.091 257.499 421.199 257.425 421.319 257.375C421.439 257.326 421.567 257.302 421.697 257.304H424.869C425.021 257.291 425.173 257.307 425.318 257.353C425.464 257.399 425.598 257.473 425.715 257.57C425.847 257.69 425.969 257.821 426.079 257.96L437.943 276.405V258.321C437.934 258.053 438.029 257.792 438.209 257.592C438.302 257.494 438.416 257.418 438.542 257.368C438.668 257.318 438.803 257.297 438.938 257.304H442.398C442.535 257.299 442.671 257.321 442.798 257.371C442.925 257.421 443.041 257.496 443.138 257.593C443.234 257.689 443.31 257.805 443.359 257.932C443.409 258.06 443.432 258.196 443.426 258.332V285.093C443.429 285.228 443.406 285.361 443.356 285.487C443.307 285.612 443.233 285.726 443.138 285.822C443.047 285.915 442.938 285.988 442.818 286.038C442.697 286.087 442.568 286.112 442.438 286.11H439.226C439.076 286.124 438.925 286.106 438.782 286.056C438.64 286.007 438.51 285.927 438.402 285.822C438.296 285.686 438.173 285.564 438.038 285.457L426.218 267.425V285.129C426.219 285.259 426.195 285.388 426.145 285.509C426.096 285.629 426.023 285.738 425.93 285.829C425.834 285.923 425.719 285.997 425.594 286.046C425.469 286.096 425.335 286.12 425.201 286.117L421.697 286.113Z" fill="#2C2C2C"/>
<path d="M463.074 286.525C460.52 286.525 458.357 286.079 456.585 285.188C454.874 284.348 453.459 283.009 452.527 281.346C451.543 279.499 451.008 277.447 450.963 275.355C450.936 274.228 450.923 273.02 450.923 271.733C450.923 270.445 450.936 269.209 450.963 268.026C451.013 265.939 451.557 263.894 452.549 262.057C453.488 260.392 454.909 259.051 456.625 258.208C458.397 257.317 460.547 256.871 463.074 256.871C464.777 256.842 466.474 257.088 468.098 257.6C469.476 258.038 470.761 258.729 471.886 259.637C472.901 260.464 473.73 261.496 474.318 262.665C474.896 263.831 475.205 265.111 475.222 266.412C475.238 266.525 475.226 266.641 475.186 266.748C475.147 266.855 475.082 266.951 474.996 267.028C474.824 267.19 474.595 267.279 474.358 267.275H470.446C470.185 267.283 469.928 267.203 469.717 267.05C469.499 266.849 469.355 266.581 469.309 266.288C468.866 264.475 468.111 263.24 467.041 262.581C465.823 261.883 464.434 261.541 463.031 261.594C461.186 261.594 459.72 262.108 458.623 263.135C457.525 264.163 456.931 265.861 456.847 268.238C456.767 270.487 456.767 272.796 456.847 275.162C456.928 277.528 457.519 279.229 458.623 280.264C459.717 281.292 461.175 281.806 463.031 281.806C464.436 281.861 465.828 281.511 467.041 280.8C468.113 280.124 468.869 278.896 469.309 277.115C469.345 276.813 469.49 276.534 469.717 276.332C469.934 276.191 470.188 276.12 470.446 276.128H474.358C474.595 276.123 474.824 276.211 474.996 276.372C475.082 276.449 475.147 276.545 475.187 276.653C475.226 276.761 475.239 276.878 475.222 276.991C475.205 278.292 474.896 279.572 474.318 280.738C473.729 281.905 472.9 282.936 471.886 283.763C470.761 284.672 469.477 285.364 468.098 285.804C466.473 286.311 464.777 286.555 463.074 286.525V286.525Z" fill="#2C2C2C"/>
<path d="M483.172 286.114C483.042 286.114 482.913 286.089 482.793 286.039C482.673 285.99 482.564 285.917 482.472 285.825C482.38 285.734 482.308 285.625 482.258 285.504C482.209 285.384 482.183 285.256 482.184 285.126V258.321C482.181 258.187 482.204 258.053 482.254 257.928C482.303 257.803 482.378 257.689 482.472 257.593C482.563 257.499 482.671 257.425 482.792 257.376C482.912 257.326 483.042 257.302 483.172 257.305H501.303C501.439 257.299 501.576 257.322 501.703 257.371C501.831 257.421 501.946 257.496 502.043 257.593C502.14 257.689 502.216 257.805 502.266 257.932C502.316 258.059 502.339 258.196 502.334 258.332V261.051C502.336 261.181 502.311 261.311 502.261 261.431C502.211 261.551 502.136 261.66 502.043 261.751C501.946 261.845 501.832 261.919 501.707 261.968C501.582 262.018 501.448 262.042 501.313 262.039H487.766V269.328H500.409C500.677 269.32 500.938 269.415 501.138 269.594C501.237 269.687 501.313 269.8 501.363 269.926C501.412 270.052 501.434 270.187 501.426 270.322V272.873C501.434 273.009 501.412 273.144 501.363 273.27C501.313 273.395 501.237 273.509 501.138 273.602C500.938 273.781 500.677 273.876 500.409 273.868H487.766V281.405H501.645C501.78 281.402 501.914 281.425 502.039 281.475C502.164 281.524 502.278 281.598 502.374 281.693C502.469 281.788 502.544 281.902 502.594 282.028C502.643 282.153 502.666 282.287 502.662 282.422V285.141C502.665 285.271 502.641 285.4 502.591 285.52C502.541 285.641 502.468 285.75 502.374 285.84C502.278 285.934 502.164 286.008 502.039 286.057C501.914 286.107 501.78 286.131 501.645 286.128L483.172 286.114Z" fill="#2C2C2C"/>
</g>
<defs>
<linearGradient id="paint0_linear_529_5629" x1="202.662" y1="267.85" x2="202.662" y2="202.667" gradientUnits="userSpaceOnUse">
<stop stop-color="#4B94CD"/>
<stop offset="1" stop-color="#1AE5BE"/>
</linearGradient>
<clipPath id="clip0_529_5629">
<rect width="700" height="494" fill="white"/>
</clipPath>
</defs>
</svg>
