<svg width="80" height="80" viewBox="0 0 80 80" fill="none" xmlns="http://www.w3.org/2000/svg">
<rect width="80" height="80" rx="40" fill="#F16822"/>
<path d="M56.5948 25.5516C54.8885 24.5651 53.3588 24.0852 52.0557 23.8919C51.7158 23.1488 50.8826 22.2756 49.1896 21.3091C43.6341 18.1364 38.0819 21.2758 38.0819 21.2758L30.6733 25.5516L34.3759 27.6879L41.7811 23.412C41.7811 23.412 43.6341 22.3423 45.4837 23.412C47.3367 24.4818 45.4837 25.5516 45.4837 25.5516L38.0785 29.8274L41.7811 31.9637L49.193 27.6845C49.3029 27.6212 51.0959 26.6514 52.8889 27.6879C54.7419 28.7576 52.8889 29.8241 52.8889 29.8241L45.4837 34.0999L49.1863 36.2395L58.4445 30.8939C58.4445 30.8939 62.147 28.7576 56.5948 25.5516Z" fill="white"/>
<path d="M30.6733 25.5516C30.6733 25.5516 28.8204 26.6214 28.8204 28.7576C28.8204 30.8972 28.8204 39.4355 28.8204 39.4355C28.8204 39.4355 28.8204 41.5751 26.9674 40.5053C25.1144 39.4355 25.1144 37.2993 25.1144 37.2993C25.1144 37.2993 25.1144 28.7576 25.1144 26.6214C25.1144 26.4881 25.1211 26.3581 25.1344 26.2315C25.3377 24.3519 26.9641 23.412 26.9641 23.412L23.2615 21.2758C23.2615 21.2758 23.2582 21.2758 23.2548 21.2791C23.1448 21.3425 21.4085 22.4123 21.4085 24.4818C21.4085 26.6214 21.4085 35.1597 21.4085 35.1597C21.4085 35.1597 21.4085 37.2993 19.5556 36.2295C17.7026 35.1597 17.7026 33.0235 17.7026 33.0235C17.7026 33.0235 17.7026 24.4818 17.7026 22.3456C17.7026 20.2094 19.5556 19.1396 19.5556 19.1396L15.853 17C15.853 17 14 18.0698 14 20.206C14 22.3456 14 30.8839 14 30.8839C14 30.8839 14 37.2993 19.5556 40.5053C21.2586 41.4884 22.4383 41.5651 23.2581 41.2018C24.078 42.5116 25.2577 43.798 26.9607 44.7811C32.5163 47.9871 32.5163 41.5751 32.5163 41.5751C32.5163 41.5751 32.5163 33.0335 32.5163 30.8972C32.5163 28.7576 34.3693 27.6912 34.3693 27.6912L30.6733 25.5516Z" fill="white"/>
<path d="M36.229 35.1964L39.9316 37.3326V41.6084L36.229 39.4722V35.1964Z" fill="white"/>
<path d="M45.4836 34.1032C45.4836 34.1032 43.6307 35.173 43.6307 37.3093C43.6307 39.4488 43.6307 47.9871 43.6307 47.9871C43.6307 47.9871 43.6307 50.1267 41.7777 49.0569C39.9248 47.9871 39.9248 45.8509 39.9248 45.8509L36.2222 43.7113C36.2222 43.7113 36.2222 50.1267 41.7777 53.3327C47.3333 56.5388 47.3333 50.1267 47.3333 50.1267C47.3333 50.1267 47.3333 41.5851 47.3333 39.4488C47.3333 37.3126 49.1862 36.2428 49.1862 36.2428L45.4836 34.1032Z" fill="white"/>
<path d="M56.5949 44.7911L64 49.0669V44.7911L56.5949 40.5153C56.5949 40.5153 51.0393 37.3892 51.0393 43.7213C51.0393 50.0534 56.5949 53.3427 56.5949 53.3427L58.4478 54.4125C58.4478 54.4125 60.3008 55.4823 60.3008 57.6185C60.3008 59.7581 58.4478 58.6883 58.4478 58.6883L51.0393 54.4125V58.6883L58.4445 62.9641C58.4445 62.9641 64 66.1702 64 59.7581C64 53.3461 60.2974 51.2065 60.2974 51.2065L56.5949 49.0702C56.5949 49.0702 54.7419 48.0005 54.7419 45.8642C54.7419 43.7213 56.5949 44.7911 56.5949 44.7911Z" fill="white"/>
</svg>
